<svg xmlns="http://www.w3.org/2000/svg" viewBox="0 0 1400 500"><defs><style>.cls-1{fill:none;}.cls-2{fill:#d9d9d9;}.cls-3{fill:#efefef;}.cls-4{fill:#3a424b;}.cls-5{fill:#30373d;}.cls-6{fill:#cbccd0;}.cls-7{fill:#ffdacb;}.cls-8{fill:#d3d6dd;}.cls-9{fill:#222;}.cls-10{fill:#363636;}.cls-11{fill:#e5d8c3;}.cls-12{fill:#e6e6e6;}.cls-13{fill:#ef9f95;}.cls-14{fill:#ccc;}.cls-15{fill:#524347;}.cls-16{fill:#eeeae3;}.cls-17{fill:#ed6d5a;}.cls-18{fill:#ececf8;}.cls-19{fill:#3d2e33;}.cls-20{fill:#ebc4b4;}.cls-21{fill:#d6d6d6;}.cls-22{fill:#f0f0f0;}.cls-23{fill:#bdbdbd;}.cls-24{fill:#a2a3a4;}.cls-25{fill:#8a8a8a;}.cls-26{fill:#bf8e26;}.cls-27{fill:#fce476;}.cls-28{fill:#ffb82d;}.cls-29{fill:#92947d;}.cls-30{fill:#ffbd32;}.cls-31{fill:#ac901f;}.cls-32{fill:#746b3f;}.cls-33{fill:#009ea0;}.cls-34{fill:#fff;}.cls-35{fill:#ff9b00;}.cls-36{fill:#45485c;}.cls-37{fill:#e4e4ea;}.cls-38{fill:#b3b3b3;}.cls-39{fill:#c95d43;}.cls-40{fill:#e5756c;}</style></defs><title>web</title><g id="레이어_2" data-name="레이어 2"><g id="레이어_2-2" data-name="레이어 2"><rect id="사각형_119" data-name="사각형 119" class="cls-1" width="1400" height="500"/><g id="그룹_337" data-name="그룹 337"><path id="패스_223" data-name="패스 223" class="cls-2" d="M145,72.12a93.4,93.4,0,0,0-3.74-11.18,17,17,0,0,1-2.08-1.38c-2.21-1.74-4.57-3.82-7.36-3.64a6.93,6.93,0,0,0-5.73,5.6A20.37,20.37,0,0,0,126.5,70l2.1,10.82c-.16-1.1-.33-2.11-.46-2.95A78.4,78.4,0,0,1,145,72.12Z"/><path id="패스_224" data-name="패스 224" class="cls-3" d="M158.84,70.82A20.61,20.61,0,0,1,167,72.55a106.31,106.31,0,0,0-4.68-13.4A14.45,14.45,0,0,0,159,53.93a5.39,5.39,0,0,0-5.74-1.14c-3.27,1.66-3.14,7-6.37,8.71a5.89,5.89,0,0,1-5.63-.58A92.33,92.33,0,0,1,145,72.11,60.78,60.78,0,0,1,158.84,70.82Z"/><path id="패스_225" data-name="패스 225" class="cls-3" d="M167,72.82c.26,1.32.76,3.14,1.22,5C167.89,76.14,167.46,74.48,167,72.82Z"/><path id="패스_226" data-name="패스 226" class="cls-2" d="M130.35,90c.5,2.54,1,5.08,1.47,7.62A55.76,55.76,0,0,1,148.06,93c-.1-3.14-.36-6.25-.76-9.37A74.8,74.8,0,0,0,130.35,90Z"/><path id="패스_227" data-name="패스 227" class="cls-3" d="M170.48,93.2A104.18,104.18,0,0,0,168.91,81a100.9,100.9,0,0,0-21.62,2.62c.41,3.11.66,6.24.76,9.37A87.26,87.26,0,0,1,170.48,93.2Z"/><path id="패스_228" data-name="패스 228" class="cls-4" d="M145,72.12a94.07,94.07,0,0,1,2.3,11.53A100.9,100.9,0,0,1,168.91,81h.1c-.2-1-.48-2.11-.76-3.19-.48-1.86-1-3.68-1.22-5l-.06-.26h0a20.61,20.61,0,0,0-8.11-1.73A59.65,59.65,0,0,0,145,72.12Z"/><path id="패스_229" data-name="패스 229" class="cls-5" d="M145,72.12a78.74,78.74,0,0,0-16.89,5.78c.14.84.3,1.85.46,2.95.45,3.14.93,6.93,1.37,9.33l.41-.2a73.16,73.16,0,0,1,16.94-6.35A96,96,0,0,0,145,72.12Z"/><ellipse id="타원_6" data-name="타원 6" class="cls-6" cx="152.7" cy="94.78" rx="40.14" ry="16.24" transform="translate(-12.22 23.36) rotate(-8.41)"/></g><g id="그룹_338" data-name="그룹 338"><g id="그룹_337-2" data-name="그룹 337"><path id="패스_268" data-name="패스 268" class="cls-7" d="M274.19,139.07c.68-1.16,1.36-2.3,2-3.47.58-1,1.29-2,2.41-2.24,1.46-.24,2.73,1.28,2.79,2.76a7.84,7.84,0,0,1-1.49,4.14,7.94,7.94,0,0,1-2.79,3.21c-1.26.68-3.14.42-3.73-.9C272.9,141.42,273.54,140.14,274.19,139.07Z"/><path id="패스_270" data-name="패스 270" class="cls-7" d="M278.94,138.82a7.56,7.56,0,0,0-9.75,4.35l0,.1q-3.36,8.74-7,17.59a23.35,23.35,0,0,0,16.79,7.3q2.46-10.32,4.67-20.72A7.54,7.54,0,0,0,278.94,138.82Z"/><path id="패스_272" data-name="패스 272" class="cls-7" d="M275.29,151.71c-2.63-2.33-2.23-6.8,0-9.47s5.8-3.87,9.22-4.57,7-1,10.21-2.37c1.31-.56,2.85-1.28,4.07-.54a2.66,2.66,0,0,1,1,2.73,6.94,6.94,0,0,1-1.37,2.74,37.92,37.92,0,0,1-12.61,11.05,15.33,15.33,0,0,1-5.28,1.89A7,7,0,0,1,275.29,151.71Z"/><path id="패스_230" data-name="패스 230" class="cls-8" d="M201.05,166.77a21.65,21.65,0,0,0-16.69,25.67c3.57,16.81,9.91,33.09,19.59,47.35,7.41,10.91,24,35,39.45,23.93,14.88-10.59-.14-25-5.77-35.56A96.81,96.81,0,0,1,226.42,186C226,173.23,213.74,164.06,201.05,166.77Z"/><path id="패스_231" data-name="패스 231" class="cls-8" d="M58.65,259.66c-12.63-11.73,1.59-23,8.75-32.09,10.53-13.35,13.89-27.27,17.7-43.31A21.75,21.75,0,0,1,113.26,169c42.14,14.91-12.37,76.07-30.58,90-7.3,5.62-16.11,7.9-24,.6Z"/><path class="cls-9" d="M149.12,453c-.83,16.27-1.8,27.72.43,47h57.32c11.78-61.17,15-119.66,12.93-178.11-21.62,4.48-90.15,2.89-89.57,2.39C132.26,362.47,151.15,413.85,149.12,453Z"/><path class="cls-10" d="M112.74,500c8.05-19.73,11.22-33.37,16.15-49.65,13.23-43.72,21.68-75.73,33.73-112,.42.62-50.22-14.46-69.89-24.51C74.14,373.09,59.56,433.6,54.43,500Z"/><path id="패스_258" data-name="패스 258" class="cls-11" d="M182.37,147.39a25,25,0,0,1-4.87-5.19,52.14,52.14,0,0,1-48.61.5,40.72,40.72,0,0,1-5.06,5.44A71.7,71.7,0,0,0,182.37,147.39Z"/><path id="패스_259" data-name="패스 259" class="cls-12" d="M220.64,188.31a44.55,44.55,0,0,0-5.32-14.06,49.94,49.94,0,0,0-19-18.23c-4.65-2.63-9.78-5.14-14-8.63a71.62,71.62,0,0,1-58.54.75,97.54,97.54,0,0,1-14.5,10.45c-6.23,3.85-12.53,7.88-17.12,13.59-17.07,21.28,2.16,46.55,3.57,68.67a248.34,248.34,0,0,1-11.35,91.49c-1.31,4,21.72,11.35,26.35,12.32,13.74,2.88,28,3.49,42,3.33,14.13-.16,28.27-.87,42.33-2.41,11.39-1.26,20.33-5.2,31-9.59a493,493,0,0,1-7.86-77.43c-.29-12.92-.49-26.07.68-38.95C219.86,209,222.75,199.06,220.64,188.31Z"/><path id="패스_260" data-name="패스 260" class="cls-13" d="M177.5,142.18c-.24-.36-.48-.7-.7-1.08-3.63-6.1-4.57-12.9-4-19.9,1.34-15,2.79-38.74-18.55-39.33-22.08-.62-21.22,24.11-19.68,39.39.91,9-1.46,15.77-5.75,21.42A52.18,52.18,0,0,0,177.5,142.18Z"/><path id="패스_261" data-name="패스 261" class="cls-8" d="M129.85,139.85l11.09,6.54L153.19,173l-14-19.22-4,8.49-11.35-14.12Z"/><path id="패스_262" data-name="패스 262" class="cls-12" d="M135.19,162.25l5.75-15.86-11.09-6.54-6,8.29Z"/><path id="패스_263" data-name="패스 263" class="cls-8" d="M176.54,139.85l-11.11,6.54L153.19,173l14-19.22,4,8.49,11.36-14.12Z"/><path id="패스_264" data-name="패스 264" class="cls-12" d="M171.18,162.25l-5.75-15.86,11.11-6.54,6,8.29Z"/><path id="패스_265" data-name="패스 265" class="cls-13" d="M165.17,147l-4.36,9.17-1.16,2.45-6.66,14-6.47-14.07-1.11-2.41-4-8.71Z"/><path id="패스_267" data-name="패스 267" class="cls-14" d="M86.25,335.07c37.67,19.07,117.75,14.42,134.37,3.15,0,1.76-.24,8.3-.24,10.07-44.9,17.28-99.45,15.78-138.26,1.18Z"/><path id="패스_269" data-name="패스 269" class="cls-12" d="M259.47,167.33c-4,9.36-8.17,18.67-12.6,27.74-4.27,8.7-8.8,17.31-13.64,25.71-4.35,7.56-10.34,14.86-13.79,22.86a16,16,0,0,0,8.35,21.06h0c20.64,8.91,28.54-24.81,33.53-37.92a443.12,443.12,0,0,0,15.42-49.72A33.18,33.18,0,0,1,259.47,167.33Z"/><path id="패스_271" data-name="패스 271" class="cls-8" d="M262.15,160.87c-.88,2.15-1.78,4.31-2.7,6.46a33.18,33.18,0,0,0,17.28,9.73q1.11-4.42,2.19-8.86A23.51,23.51,0,0,1,262.15,160.87Z"/><path id="패스_274" data-name="패스 274" class="cls-12" d="M41.71,168.41c4.37,9.19,8.94,18.29,13.78,27.18q6.94,12.78,14.72,25.11c4.67,7.36,11,14.4,14.78,22.24a16,16,0,0,1-7.44,21.39h0C57.29,274.12,48,240.77,42.39,227.9a446.09,446.09,0,0,1-17.55-49A33.37,33.37,0,0,0,41.71,168.41Z"/><path id="패스_278" data-name="패스 278" class="cls-15" d="M168.9,89l-3.65,1.31c6.52,3.37,6.21,24.55,7.88,27.63C174.51,106.7,174,97.16,168.9,89Z"/><path id="패스_279" data-name="패스 279" class="cls-15" d="M134.48,119.64c2.09-2.29,6.46-23.67,6.22-30.08a4.54,4.54,0,0,0-2.69-.15C136.81,91.42,131.92,99,134.48,119.64Z"/><path id="패스_280" data-name="패스 280" class="cls-13" d="M139.76,101.07a12.47,12.47,0,0,1-1.37,6.11,15.46,15.46,0,0,1-3.48-2.22,7,7,0,0,1-2.21-3.47,4.64,4.64,0,0,1,.76-3.95,3.44,3.44,0,0,1,3.73-1.15,3.64,3.64,0,0,1,2,1.93A7,7,0,0,1,139.76,101.07Z"/><path id="패스_281" data-name="패스 281" class="cls-13" d="M169.54,101.87A12.61,12.61,0,0,0,170.9,108a15.35,15.35,0,0,0,3.49-2.23,7,7,0,0,0,2.21-3.47,4.64,4.64,0,0,0-.76-4,3.42,3.42,0,0,0-3.73-1.14,3.65,3.65,0,0,0-2,1.92A7,7,0,0,0,169.54,101.87Z"/><path id="패스_282" data-name="패스 282" class="cls-15" d="M148.36,91.42l-6,3.07"/><path id="패스_283" data-name="패스 283" class="cls-15" d="M148.4,91.52A4.88,4.88,0,0,1,148,93a3.87,3.87,0,0,1-.68,1c-.16.14-.28.34-.46.42l-.54.34-.61.22a2.63,2.63,0,0,1-.62.13,3.7,3.7,0,0,1-1.24,0,4.53,4.53,0,0,1-1.47-.52l-.1-.2,3-1.64,3.07-1.43Z"/><path id="패스_284" data-name="패스 284" class="cls-15" d="M165.21,91.9l-6.76-.46"/><path id="패스_285" data-name="패스 285" class="cls-15" d="M165.19,92A4.68,4.68,0,0,1,164,93.07a3.38,3.38,0,0,1-1.12.52,2.2,2.2,0,0,1-.62.12l-.64,0-.62-.12a2.54,2.54,0,0,1-.6-.22,3.68,3.68,0,0,1-1.05-.69,4.73,4.73,0,0,1-1-1.2l0-.24,3.39.12c1.68.18,3.37.34,3.37.34Z"/><path id="패스_286" data-name="패스 286" class="cls-15" d="M149.88,102.37a2.28,2.28,0,1,1-2.55-2h0a2.26,2.26,0,0,1,2.54,1.93Z"/><path id="패스_287" data-name="패스 287" class="cls-15" d="M165.47,101.25a2.28,2.28,0,1,1-2.55-2h0A2.28,2.28,0,0,1,165.47,101.25Z"/><path id="패스_288" data-name="패스 288" class="cls-16" d="M150.51,119.94a12.36,12.36,0,0,0,12.09-1.67c0-.2-.4-.18-.4,0,.14,1.83,1.54,2.75,1.76,4.58a6.66,6.66,0,0,1-1.32,5.17,6.21,6.21,0,0,1-4.19,1.95,8.15,8.15,0,0,1-7-3.13A7,7,0,0,1,150.51,119.94Z"/><circle id="타원_7" data-name="타원 7" class="cls-17" cx="143.43" cy="111.81" r="3.87"/><circle id="타원_8" data-name="타원 8" class="cls-17" cx="167.87" cy="108.76" r="3.87"/><path id="패스_289" data-name="패스 289" class="cls-4" d="M164.65,108a6.51,6.51,0,0,1-3.71-1.12,9.43,9.43,0,0,1-3.31-9.21,4.76,4.76,0,0,1,.3-.9c1.38-3,5.65-3.27,6.94-3.27a5.72,5.72,0,0,1,.58,0,6.74,6.74,0,0,1,4.27,1.42,6.51,6.51,0,0,1,2,4.84,9.16,9.16,0,0,1-2.46,6.5A6.87,6.87,0,0,1,164.65,108Zm.2-13c-2.17,0-4.76.62-5.56,2.39a2.49,2.49,0,0,0-.2.6c-.6,2.71.64,6.2,2.71,7.64a5.39,5.39,0,0,0,6.37-.48,7.62,7.62,0,0,0,2-5.38A5,5,0,0,0,168.69,96a5.74,5.74,0,0,0-3.33-1Z"/><path id="패스_290" data-name="패스 290" class="cls-4" d="M147,109.15h0a6.42,6.42,0,0,1-3.81-1.21,9,9,0,0,1-3.31-6.09,6.44,6.44,0,0,1,1.3-5.06,6.75,6.75,0,0,1,4-2,12.58,12.58,0,0,1,2.29-.2c2.63,0,4.61.86,5.59,2.43a6.65,6.65,0,0,1,.43.84,9.4,9.4,0,0,1-2.05,9.56A6.61,6.61,0,0,1,147,109.15Zm.48-13a11.38,11.38,0,0,0-2,.18,5.71,5.71,0,0,0-3.17,1.49,5,5,0,0,0-.94,3.89,7.67,7.67,0,0,0,2.69,5,5,5,0,0,0,2.93.91h0a5.11,5.11,0,0,0,3.44-1.29c1.85-1.7,2.61-5.33,1.65-7.94a2.93,2.93,0,0,0-.28-.56C150.85,96.35,148.68,96.13,147.46,96.13Z"/><rect id="사각형_66" data-name="사각형 66" class="cls-4" x="152.97" y="97.33" width="5.15" height="1.5" transform="translate(-6.26 10.71) rotate(-3.86)"/><rect id="사각형_67" data-name="사각형 67" class="cls-4" x="136.79" y="98.48" width="3.79" height="1.5" transform="translate(-6.37 9.57) rotate(-3.86)"/><rect id="사각형_68" data-name="사각형 68" class="cls-4" x="170.72" y="96.19" width="3.13" height="1.5" transform="translate(-6.14 11.83) rotate(-3.86)"/><path id="패스_292" data-name="패스 292" class="cls-17" d="M160.15,109.51l-1.81-7.34c-.4-1.65-1.24-3.67-2.94-3.69a2.65,2.65,0,0,0-2.31,1.78,7.9,7.9,0,0,0-.36,3c0,2.17.06,4.31.1,6.48a11.61,11.61,0,0,0,.88,5.21c.8,1.59,2.63,2.81,4.33,2.33a4,4,0,0,0,2.59-3.37A11.19,11.19,0,0,0,160.15,109.51Z"/><path id="패스_293" data-name="패스 293" class="cls-4" d="M153,190.57l-5.31,4.86c.1,2.84,2.43,5.89,4.35,8-3,29.52-5,104.65-3.57,134.29L168,358.55l13.67-22.5c.36-6.46-13.67-108.45-24.32-133.4a12.38,12.38,0,0,0,1.56-8.73C158.57,193.64,153,190.57,153,190.57Z"/><path id="패스_294" data-name="패스 294" class="cls-4" d="M169.32,156.74a44.83,44.83,0,0,1-14.6,34.5c1.42.74,2.65,1.18,4.07,1.9,3.77-4.37,6.44-9,9.45-13.94s5.23-10.45,5.55-16.2c-.18.2-.38.4-.56.62C171,162.72,169.18,159.17,169.32,156.74Z"/><path id="패스_295" data-name="패스 295" class="cls-4" d="M151.47,191.58c-4.09-1.81-6.26-6.28-7.76-10.51a97.37,97.37,0,0,1-5.42-25.57c-.9,1.84-2.1,2.93-3,4.77-5.7,11.65,3.63,25.65,12,35.58C148.88,194.54,149.84,192.86,151.47,191.58Z"/><path class="cls-13" d="M31,144.81l0-.1a7.55,7.55,0,0,0-5.49-4.41c-.62-1-1.24-1.9-1.85-2.85s-1.39-2-2.51-2.15c-1.46-.18-2.67,1.41-2.67,2.89a11.34,11.34,0,0,0,.86,2.56,26.78,26.78,0,0,0-3.92-.9c-3.45-.54-7-.68-10.29-1.92-1.35-.5-2.91-1.16-4.09-.38a2.67,2.67,0,0,0-.91,2.77A7,7,0,0,0,1.58,143a37.75,37.75,0,0,0,13.07,10.49,15.4,15.4,0,0,0,3.46,1.31c1.35,5.12,2.73,10.22,4.19,15.3a23.36,23.36,0,0,0,16.44-8Q34.74,153.44,31,144.81Z"/><path id="패스_276" data-name="패스 276" class="cls-8" d="M38.74,162.08c1,2.1,2,4.23,3,6.33a33,33,0,0,1-16.87,10.45C24,176,23.12,173,22.27,170.1A23.37,23.37,0,0,0,38.74,162.08Z"/></g><g id="그룹_336" data-name="그룹 336"><path id="패스_296" data-name="패스 296" class="cls-15" d="M304.06,161.11c3-7.62,1.46-16.5-1.17-23.7-2.82-7.78-8.28-13.28-20-14.92-11.53-1.63-22.5,8.18-25.39,20.59-.4,1.77-.52,6.62-3.69,4.48-.88-.61-1.59-1.49-2.63-1.73-1.94-.46-3.61,1.65-3.57,3.54s1,3.62,1.43,5.47c.92,4.43-1.63,4-4.76,3.55-3.77-.5-7.58-.12-10.65,2.17a11.28,11.28,0,0,0-4.23,11.75c.64,2.42,2.15,4.79,1.81,7.26s-2.37,4.29-4.63,5.45-4.8,1.73-7.18,2.67c-10.43,4.08-16.73,14.94-16.53,25.55s6.12,20.7,14.38,28S236,253.41,246.64,257s22.2,6.14,33.63,5.6,22.93-4.35,31-11.91a44.85,44.85,0,0,0,10-14.76c2.48-5.72,4-12,3-18.09s-5.17-12-11.35-14.28c-2.07-.77-3.44-3.89-3.29-6s1.51-3.87,3-5.4a38.19,38.19,0,0,0,4.45-4.55,10.2,10.2,0,0,0,.81-10.37,11.67,11.67,0,0,0-9.05-6.11c-1.14-.12-1.34-1.43-1.32-2.51a5.18,5.18,0,0,1,1.4-2.89,5.85,5.85,0,0,0,1.51-2.85,3,3,0,0,0-2.11-3.06A4.25,4.25,0,0,0,304.06,161.11Z"/><path id="패스_297" data-name="패스 297" class="cls-13" d="M192.13,255.73c3.85-9.76,10-19.75,18-30.28,6.48-8.56,17-22.06,29.7-24.17,8.42-1.4,16.32,2.07,20.29,9.07,5.52,9.73,1.75,23.32-7.78,30.88-5.55,4.42-11.55,7.69-16.42,11.58a114.13,114.13,0,0,0-12.3,11.27,86.24,86.24,0,0,0-8.32,10.33c-.46.68-5,8.64-4.85,8.68-5.38,10.17-21.56,3.57-22.75-7.7.06-.78.13-1.57.19-2.35A62.73,62.73,0,0,1,192.13,255.73Z"/><path id="패스_298" data-name="패스 298" class="cls-9" d="M426,309.78c-3.47-1.5-18.39-1.64-22.12-1.26h0c-.44,0-.88.08-1.32.14-11.15,1.28-22,4.31-32.65,7.72a62.15,62.15,0,0,1-13.3,3.13c-.28,0-3.33-.4-5.74-.77l-.08-.08-.12-.12a40.06,40.06,0,0,0-23.42-8.94c-21.86,1.79-45,14-45.28,42,1.5,16,13.62,26.11,23.42,31.94,18.41,11,40.94,10.26,61,4.16a168.23,168.23,0,0,0,29.66-12.66c1.71-.9,3.41-1.84,5.1-2.79,2.22-1.22,4.43-2.46,6.61-3.73h0l2.89-1.64c6.88-4,13.72-7.56,19.82-12.82C443.16,343.15,442.54,316.92,426,309.78Z"/><path id="패스_299" data-name="패스 299" class="cls-13" d="M411.45,314.45c-19.95,3.35-29.92,26.66-38,42.54-9.05,17.85-14.32,37.3-19.68,56.5-2.3,8.26-4,15.3-4.25,23.76-.22,7.54-4.15,15.5-3.11,22.94,1.87,13.44,10.23-1.06,12.44-4.85,18.57-32.11,42.39-60.6,63.19-91.23,7.32-10.79,19.25-19.08,14.82-33.76A22.7,22.7,0,0,0,411.45,314.45Z"/><path id="패스_300" data-name="패스 300" class="cls-13" d="M361.15,486a9.6,9.6,0,0,0,4.46,1.29,5,5,0,0,0,3.63-1.53,31.94,31.94,0,0,1-3-3.27,37.55,37.55,0,0,1-8.15-22.22c-.1-3.51-1.78-7.32-5.33-8.38-1.66-.5-2.75-.8-4.37-.14a6.11,6.11,0,0,0-1.33.72c.26,6.14.65,12.34,2.47,18.19C351.49,477,355.34,482.92,361.15,486Z"/><path id="패스_301" data-name="패스 301" class="cls-10" d="M369.24,485.76a5,5,0,0,1-3.63,1.53,10,10,0,0,1-4.46-1.28c-5.81-3.09-9.66-9.05-11.63-15.33-1.82-5.86-2.2-12.05-2.46-18.19-3,2.07-3.11,6-4,9.63-2,8.42-6.28,18.57-12.2,24.89.26,0,1.77.44,2,.44,5.47-4.23,9.1-6.82,13.25-12.78-.56,8,5.76,14.91,12.9,18.41a37.17,37.17,0,0,0,27,2.25A37.29,37.29,0,0,1,369.24,485.76Z"/><path id="패스_302" data-name="패스 302" class="cls-9" d="M422.36,308.36c-16.61-2.89-33.21,7.52-43,21.28s-14.2,30.44-19.15,46.56-11,32.61-22.94,44.51c7.44,1.28,9.62,7.42,14.52,13.15a53.47,53.47,0,0,0,48.47,17.59c-5.36-2.63-7.08-9.39-7.54-15.34s1.22-11.83,3.15-17.47a197.4,197.4,0,0,1,27.19-52.32c4.86-6.66,10.17-13.1,13.82-20.48s5.54-16.08,3.05-23.95S430.48,309.76,422.36,308.36Z"/><path id="패스_304" data-name="패스 304" class="cls-13" d="M366.09,259.6c-10.13-2.78-20.72-7.86-32-14.66-9.21-5.53-23.75-14.52-27.2-26.95-2.28-8.22.32-16.45,6.86-21.14,9.09-6.52,23-4.21,31.55,4.45,5,5.06,8.86,10.67,13.25,15.13a114,114,0,0,0,12.52,11,84.68,84.68,0,0,0,11.15,7.18c.72.38,9.12,4,9.14,3.91,10.67,4.27,5.84,21.06-5.25,23.43-.78,0-1.57.06-2.35.06A64.57,64.57,0,0,1,366.09,259.6Z"/><path class="cls-13" d="M431,186.7a5.27,5.27,0,0,0-8.49-3.65,10,10,0,0,0-1.56,1.35,16.13,16.13,0,0,0-1.73,2.22,30,30,0,0,0-3.43,7.06v0c-.08-.17-.16-.33-.25-.49-.36-.68-.82-1.44-1.58-1.54a1.64,1.64,0,0,0-1.63,1.06,4.7,4.7,0,0,0-.24,2,11.3,11.3,0,0,0,.5,3.43,3.9,3.9,0,0,0,.6,1.1Q410,204.8,406.28,210c-6,8.4-13.16,15.84-20.46,23.06l-9.43,9.29c-6.18,6.07-3.65,16.78,4.72,19.07,0,0,.1,0,.16,0a16.52,16.52,0,0,0,12.25-1.32c3.81-2.07,6-5.84,8.42-9.25,3.27-4.53,6.52-9.09,9.45-13.84,6.6-10.69,12.23-21.5,15.74-33.59.29-1,.59-2.06.83-3.13,1.16-2.17,1.65-4.89,2.4-7.42A12.73,12.73,0,0,0,431,186.7Z"/><path class="cls-10" d="M241.85,500h49.32a150.89,150.89,0,0,1-.85-32c1.4-17.13,5.73-33.86,8.52-50.8,5.42-32.95.38-67-6-99.76l-56.27-5.81c-14,41.63-8.22,87.32-2.41,130.84Q238,471.22,241.85,500Z"/><path id="패스_312" data-name="패스 312" class="cls-10" d="M243.53,296.83c-.48.92-1,1.84-1.46,2.78h0c-1.57,3.09-3,6.22-4.34,9.41a69.34,69.34,0,0,0-5.45,22.58c-.84,16.25,6.72,33.67,17.55,45.53l.68.66A51.88,51.88,0,0,0,309.23,387c19.17-9.54,30.88-36.12,29.3-56.86a64.15,64.15,0,0,0-1.71-10.48,86.66,86.66,0,0,0-2.76-9.23c-.68-1.92-1.41-3.83-2.17-5.72s-1.8-4.07-2.83-6.13A134.07,134.07,0,0,1,243.53,296.83Z"/><path id="패스_313" data-name="패스 313" class="cls-4" d="M322.87,278.32a122.15,122.15,0,0,1-72-1.59,27.42,27.42,0,0,1-3.65,14.46c-1.12,2-2.21,4-3.29,6a133.37,133.37,0,0,0,85.19,1.68C325.88,292.29,322.35,285.42,322.87,278.32Z"/><path id="패스_314" data-name="패스 314" class="cls-13" d="M304.76,251c8-9.08,11.91-22.49,13.41-34.5,1.05-8.36.33-16.78-.88-25.14-.68-1.12-1.38-2.21-2.07-3.33-5.63-9.45-2.28-19.58-3.38-30.15a54.62,54.62,0,0,0-2.91-12.55c-3.95-11-11.77-21.34-23.85-20.46a19.88,19.88,0,0,0-18.37,21.26c1.06,14.7-3.75,29.06-10.35,42.36A120.75,120.75,0,0,1,304.76,251Z"/><path id="패스_315" data-name="패스 315" class="cls-18" d="M338,223.71c-4.41-6.9-8.95-13.76-13.38-20.66l-2.95-4.59c-1.48-2.35-2.93-4.74-4.39-7.1,1.21,8.36,1.93,16.78.88,25.15-1.48,12-5.39,25.41-13.41,34.49a121,121,0,0,0-48.37-62.55c-.16.32-.32.66-.49,1-.5,1-1,2-1.56,3-.9,1.72-1.84,3.43-2.79,5.11-.64,1.17-1.3,2.29-2,3.43-.86,1.49-1.73,2.95-2.59,4.38-6.52,10.81-16.58,19.31-15.88,33.15,0,.36.06.68.1,1,.09,1,.23,2,.42,3,1.61,7.8,6.52,12.91,12.32,18.69.34.35.64.68,1,1a22.32,22.32,0,0,1,5.93,14.44,122.18,122.18,0,0,0,72,1.59,18.36,18.36,0,0,1,1.36-5.84c.14-.34.26-.68.42-1a38.8,38.8,0,0,1,6.86-9.29c1.58-1.68,3.21-3.32,4.77-5,4.19-4.53,8.07-9.93,8.35-16.08C344.89,234.78,341.38,229,338,223.71Z"/><path id="패스_316" data-name="패스 316" class="cls-19" d="M272.35,161.09a21.92,21.92,0,0,0,3.83-13.48A9.9,9.9,0,0,0,275,143a4,4,0,0,0-3.79-1.9,24.52,24.52,0,0,1-11.66,9.14c4.14,4.91,7,11.91,4.48,17.79l.8-.2A21.92,21.92,0,0,0,272.35,161.09Z"/><path id="패스_317" data-name="패스 317" class="cls-15" d="M301.19,132.21c-6.16-8.68-16.07-11.55-26.07-7.94s-16.41,15.32-15.63,25.93c0,0,0,0,0,0a24.39,24.39,0,0,0,11.65-9.14A4.11,4.11,0,0,1,275,143a9.94,9.94,0,0,1,1.18,4.62,21.64,21.64,0,0,1-11.35,20.19,20.32,20.32,0,0,0,14.24-12.47c2.36-6.44,3-13.48-1.33-18.81A24.62,24.62,0,0,1,301.19,132.21Z"/><path id="패스_318" data-name="패스 318" class="cls-19" d="M268.9,136.53a4.28,4.28,0,0,0-1.26,4c-2-.26-4.19,1.08-4.27,3.07a4.75,4.75,0,0,0-3.31,1.38,3.62,3.62,0,0,0-.63,3c-.48-1.15-.8-2.89-.16-3.95a4,4,0,0,1,3.05-1.87c.52-1.76,2.43-3.49,4.25-3.13a2.47,2.47,0,0,1,.46-2.42C267.56,136.06,268.14,136.26,268.9,136.53Z"/><path id="패스_319" data-name="패스 319" class="cls-13" d="M274.17,160.57a9.93,9.93,0,0,0-2.28-7.32c-1.79-1.93-4.86-2.77-7.16-1.49a6,6,0,0,0-2.77,5.72,9.29,9.29,0,0,0,3.09,5.8,22.33,22.33,0,0,0,5.64,3.59A8.28,8.28,0,0,0,274.17,160.57Z"/><g id="그룹_303" data-name="그룹 303"><path id="패스_320" data-name="패스 320" class="cls-15" d="M283.36,144.55l8.26.48"/><path id="패스_321" data-name="패스 321" class="cls-15" d="M283.36,144.41a5.83,5.83,0,0,1,1.36-1.31,5,5,0,0,1,1.37-.66,3.21,3.21,0,0,1,.76-.16l.78,0,.76.12a4.45,4.45,0,0,1,2,1.06,6.27,6.27,0,0,1,1.22,1.45l0,.28-4.15-.1c-2.07-.18-4.13-.38-4.13-.38Z"/></g><path id="패스_322" data-name="패스 322" class="cls-15" d="M287,149.52l5.41.62a2.72,2.72,0,1,0-5.41-.62Z"/><g id="그룹_304" data-name="그룹 304"><path id="패스_323" data-name="패스 323" class="cls-15" d="M300.31,143.2c2.67-.7,5.33-1.4,8-2.12"/><path id="패스_324" data-name="패스 324" class="cls-15" d="M300.27,143.08a5.58,5.58,0,0,1,.9-1.66,4.62,4.62,0,0,1,1.1-1.06,2.9,2.9,0,0,1,.66-.38l.72-.28.77-.13a4.07,4.07,0,0,1,.78,0,4.63,4.63,0,0,1,1.46.38,6,6,0,0,1,1.61,1l.08.28-4,1.2-4.05.93Z"/></g><path id="패스_325" data-name="패스 325" class="cls-15" d="M308.35,146.89l-5.18,1.71a2.73,2.73,0,0,1,5.18-1.71Z"/><path id="패스_326" data-name="패스 326" class="cls-16" d="M294.71,156.76l8.06-1.34a3.91,3.91,0,0,1-.88,4.17,4.23,4.23,0,0,1-4.33,1A4.85,4.85,0,0,1,294.71,156.76Z"/><path id="패스_327" data-name="패스 327" class="cls-20" d="M307.41,164.92a7.27,7.27,0,0,1-8.82,5.29,7.19,7.19,0,0,1-3.24-1.78c1.07,1.81,1.95,3.07,3.93,3.73a6.46,6.46,0,0,0,6-.92C306.92,169.94,308.13,166.9,307.41,164.92Z"/><circle id="타원_9" data-name="타원 9" class="cls-17" cx="285.24" cy="158.12" r="5.78"/><circle id="타원_10" data-name="타원 10" class="cls-17" cx="311.48" cy="154.56" r="5.78"/><path id="패스_328" data-name="패스 328" class="cls-13" d="M251.43,298.21a4,4,0,0,1-2.93.72,2.35,2.35,0,0,1-1.38-2.83,3.81,3.81,0,0,1,2.32-2.4,11,11,0,0,1,3.41-.61,4.83,4.83,0,0,1,2.07.18,1.66,1.66,0,0,1,1.1,1.59c-.08.76-.84,1.24-1.5,1.62Z"/><path id="패스_329" data-name="패스 329" class="cls-13" d="M240.68,292.17a134.62,134.62,0,0,0,12.38,7.42c4.67,2.47,11.33,1.93,8.62,9.69-2.23,6.4-8.76,4.91-13.9,3.57-12.19-3.17-23.14-8.52-34-14.82-4.83-2.81-9.47-5.93-14.08-9.06-3.47-2.37-7.3-4.41-9.47-8.19a16.56,16.56,0,0,1-1.66-12.21c0-.06,0-.12,0-.16,2.05-8.42,12.69-11.23,18.93-5.24l9.55,9.17C224.5,279.46,232.12,286.4,240.68,292.17Z"/><path id="패스_330" data-name="패스 330" class="cls-13" d="M265.89,307.39a17.1,17.1,0,0,0-2-2,29.46,29.46,0,0,0-6.59-4.25c-1-.46-2.59-1.46-3.67-1.44s-1.21.36-2.11,1.06c-2.1,1.61-5.63,2.55-5.51,5.72.24,6.13,5.71,7.26,10.33,9.26a12.67,12.67,0,0,0,6.05,1.34,5.26,5.26,0,0,0,4.67-8A9.87,9.87,0,0,0,265.89,307.39Z"/></g></g><g id="그룹_915" data-name="그룹 915"><g id="그룹_902" data-name="그룹 902"><g id="그룹_901" data-name="그룹 901"><g id="그룹_900" data-name="그룹 900"><path class="cls-21" d="M1394,500V300a2.17,2.17,0,0,0-2.32-2H1173.23a2.18,2.18,0,0,0-2.33,2V500Z"/><g id="그룹_896" data-name="그룹 896"><rect id="사각형_127" data-name="사각형 127" class="cls-22" x="1175.55" y="413.36" width="213.82" height="48.28"/><rect id="사각형_128" data-name="사각형 128" class="cls-23" x="1175.55" y="452.5" width="213.82" height="1.61"/><rect id="사각형_129" data-name="사각형 129" class="cls-23" x="1256.33" y="441.15" width="52.32" height="11.68"/><rect id="사각형_130" data-name="사각형 130" class="cls-24" x="1256.33" y="448.35" width="52.32" height="4.43"/></g><g id="그룹_897" data-name="그룹 897"><rect class="cls-22" x="1175.55" y="465.84" width="213.82" height="34.16"/><rect class="cls-23" x="1256.33" y="493.58" width="52.32" height="6.42"/></g><g id="그룹_898" data-name="그룹 898"><rect id="사각형_135" data-name="사각형 135" class="cls-22" x="1175.55" y="360.92" width="213.82" height="48.28"/><rect id="사각형_136" data-name="사각형 136" class="cls-23" x="1175.55" y="400.07" width="213.82" height="1.61"/><rect id="사각형_137" data-name="사각형 137" class="cls-23" x="1256.33" y="388.66" width="52.32" height="11.68"/><rect id="사각형_138" data-name="사각형 138" class="cls-24" x="1256.33" y="395.91" width="52.32" height="4.43"/></g><g id="그룹_899" data-name="그룹 899"><rect id="사각형_139" data-name="사각형 139" class="cls-22" x="1175.55" y="308.44" width="213.82" height="48.28"/><rect id="사각형_140" data-name="사각형 140" class="cls-23" x="1175.55" y="347.58" width="213.82" height="1.61"/><rect id="사각형_141" data-name="사각형 141" class="cls-23" x="1256.33" y="336.23" width="52.32" height="11.68"/><rect id="사각형_142" data-name="사각형 142" class="cls-24" x="1256.33" y="343.43" width="52.32" height="4.43"/></g></g><rect id="사각형_144" data-name="사각형 144" class="cls-25" x="1162.71" y="290.39" width="237.29" height="12.51"/></g></g><g id="그룹_903" data-name="그룹 903"><path id="패스_1495" data-name="패스 1495" class="cls-1" d="M1261.13,177.32c-.14.57-.28,1.28-.43,1.85a4.2,4.2,0,0,1,1.57-1.56,4.35,4.35,0,0,1,1.43-.58,2.27,2.27,0,0,1-.71-1.56A11.62,11.62,0,0,1,1261.13,177.32Z"/><path id="패스_1496" data-name="패스 1496" class="cls-1" d="M1260.56,182.31c-.14.14-.43,0-.57-.14h-.14c-.43,1.28-.86,2.71-1.29,4a9.07,9.07,0,0,1,3.57-1h.86a23.21,23.21,0,0,1,1.28-3.14A6.7,6.7,0,0,1,1260.56,182.31Z"/><path id="패스_1497" data-name="패스 1497" class="cls-1" d="M1266.27,165.91c-.29,0-.57-.14-.57-.28a27.6,27.6,0,0,0-1.43,3.13,6.1,6.1,0,0,1-.57,1.43,7.14,7.14,0,0,1,2.85-1.57h.14v-.86a7.48,7.48,0,0,1,.57-1.85.51.51,0,0,1-.42-.14A1,1,0,0,1,1266.27,165.91Z"/><path id="패스_1498" data-name="패스 1498" class="cls-1" d="M1257.71,189.16a13.83,13.83,0,0,1-.57,2.28,2.77,2.77,0,0,1-.15,1c-.14.86-.28,1.72-.42,2.86l.57-.57a18.75,18.75,0,0,1,3.14-2c.14,0,.14-.14.28-.14.29-.86.43-1.85.72-2.57h-.15C1259.56,190,1258,189.59,1257.71,189.16Z"/><path id="패스_1499" data-name="패스 1499" class="cls-1" d="M1246.16,167.62c-.15-.43-.29-.71-.43-1.14a4.55,4.55,0,0,1-1.14.29,9.1,9.1,0,0,1,1.85,1.42C1246.3,167.91,1246.16,167.77,1246.16,167.62Z"/><path id="패스_1500" data-name="패스 1500" class="cls-1" d="M1251.72,175.18c.28.57.43,1.28.71,1.85l.43-2.56C1252.49,174.72,1252.11,175,1251.72,175.18Z"/><path id="패스_1501" data-name="패스 1501" class="cls-1" d="M1266.55,175a7.58,7.58,0,0,1,.57,1.14,22.85,22.85,0,0,1,2-3.14c-.14-.14-.29-.43-.57-.57a7.7,7.7,0,0,1-3.42.86A4.15,4.15,0,0,1,1266.55,175Z"/><path id="패스_1502" data-name="패스 1502" class="cls-1" d="M1273.68,163.77a7.84,7.84,0,0,1-2.85,1.71,4.32,4.32,0,0,1,.71,2.28v1.86c1.29-1.71,2.57-3.42,4-5a3.27,3.27,0,0,1-1.43-1C1273.82,163.63,1273.82,163.77,1273.68,163.77Z"/><path id="패스_1503" data-name="패스 1503" class="cls-1" d="M1269.83,158.35c-1,1.43-1.85,2.85-2.71,4.28a8.21,8.21,0,0,0-.71,1.57c1-1.14,1.85-2.14,3.56-2.28a6.76,6.76,0,0,1,3.28.28,2.67,2.67,0,0,1-.28-1,4.55,4.55,0,0,1,.28-2A9.27,9.27,0,0,1,1269.83,158.35Z"/><path id="패스_1504" data-name="패스 1504" class="cls-1" d="M1256.43,201.85c0,1.14.14,2.43.14,3.71l2.14-.14c.14-1.71.28-3.43.57-5.14a11,11,0,0,1-2.28,1.14A.78.78,0,0,1,1256.43,201.85Z"/><path id="패스_1505" data-name="패스 1505" class="cls-1" d="M1243,184.74a2.58,2.58,0,0,1-1.43.57c1,1.71,2,3.42,2.86,5.27a7.1,7.1,0,0,1,.28-1.71l.43-1.28-.43-.43A15.11,15.11,0,0,1,1243,184.74Z"/><path id="패스_1506" data-name="패스 1506" class="cls-1" d="M1251.58,186.16c0-.14-.15-.14-.15-.28a4.85,4.85,0,0,1-.28-3.14v-.14c-.14.28-1,.57-2.14.85a30.73,30.73,0,0,1,2.57,4.71A8.92,8.92,0,0,1,1251.58,186.16Z"/><path id="패스_1507" data-name="패스 1507" class="cls-1" d="M1251.43,190.16a10.92,10.92,0,0,1-2.13-.29,5.19,5.19,0,0,1-1.15,2.14h0a8.42,8.42,0,0,1-2.14,1.85c.43,1.14.86,2.14,1.29,3.28.28-.28.43-.71.71-.85,1-1,2.43-1.86,2.71-3.28v-.29c0-.14.43-.14.43-.14h0c0-.28.14-.28.28,0s-.28.57-.28.86.28.71.43,1.14v-.86A30.19,30.19,0,0,1,1251.43,190.16Z"/><path id="패스_1508" data-name="패스 1508" class="cls-1" d="M1251.58,196.57a.82.82,0,0,1-.15.57,5.44,5.44,0,0,1-3.28,2.86,35,35,0,0,1,1.57,5.42l2.71.14a1.82,1.82,0,0,1,.15-.86A49.35,49.35,0,0,1,1251.58,196.57Z"/><path id="패스_1509" data-name="패스 1509" class="cls-1" d="M1255.71,185.45a37,37,0,0,1,1.14-3.57l-1.28-.85a8.67,8.67,0,0,1-2,1c.15.29.29,1,.57,1.86a3.66,3.66,0,0,1,.86.71A2.19,2.19,0,0,1,1255.71,185.45Z"/><path id="패스_1510" data-name="패스 1510" class="cls-1" d="M1255,188.59a.89.89,0,0,0,.14.57c0-.29.14-.43.14-.57Z"/><path id="패스_1511" data-name="패스 1511" class="cls-26" d="M1265.41,134.39c.14-.71.29-1.28.43-2-.29-.15-.43-.43-.71-.58-.15.72-.43,1.29-.57,2A3,3,0,0,1,1265.41,134.39Z"/><path id="패스_1512" data-name="패스 1512" class="cls-26" d="M1270.54,136.53a18.18,18.18,0,0,1,1.57-1.71l-1.28-.43c-.43.57-.86,1.29-1.28,1.86C1269.87,136.36,1270.2,136.45,1270.54,136.53Z"/><path id="패스_1513" data-name="패스 1513" class="cls-26" d="M1271,136.67c2,.43,4.14.58,6.14,1a.73.73,0,0,1,.57.71c0,.15.14.15.14.29a.72.72,0,0,0,.28-.57c0-1.57-2.28-2.14-3.42-2.43-.57-.14-1.14-.43-1.71-.57-.14,0-.29-.14-.43-.14C1272,135.53,1271.54,136.1,1271,136.67Z"/><path id="패스_1514" data-name="패스 1514" class="cls-26" d="M1268.26,135.82l.86-1.71a5.33,5.33,0,0,1-1.29-.57,8.78,8.78,0,0,1-.57,1.85A7.35,7.35,0,0,0,1268.26,135.82Z"/><path id="패스_1515" data-name="패스 1515" class="cls-26" d="M1269.12,136.1a19.63,19.63,0,0,0,1.28-1.85c-.28,0-.43-.14-.71-.14-.29.57-.71,1.14-1,1.85A.53.53,0,0,0,1269.12,136.1Z"/><path id="패스_1516" data-name="패스 1516" class="cls-26" d="M1259.85,130.26c1,.71,2,1.57,3,2.28.43.28.72.57,1.14.85.15-.71.43-1.42.58-2-2.29-2-4.71-4.14-7.28-2.71-.14,0-.28.28-.28.43.14-.15.28-.15.71-.29S1259.42,130,1259.85,130.26Z"/><path id="패스_1517" data-name="패스 1517" class="cls-26" d="M1266.69,135.11c.15-.58.29-1.15.43-1.86-.28-.14-.43-.28-.71-.43-.14.57-.29,1.29-.43,1.86A2.69,2.69,0,0,1,1266.69,135.11Z"/><path id="패스_1518" data-name="패스 1518" class="cls-27" d="M1264.56,133.68a8.63,8.63,0,0,0,.57-2,9.58,9.58,0,0,0,0-6,.28.28,0,0,1-.39,0l0,0a12.33,12.33,0,0,1-.14,5.57,8.24,8.24,0,0,1-.58,2C1264.13,133.54,1264.27,133.54,1264.56,133.68Z"/><path id="패스_1519" data-name="패스 1519" class="cls-28" d="M1265.12,125.69h0a1.49,1.49,0,0,0-.56-1.57c-.15-.14-.43,0-.43.29s.14.43.14.57.14.43.29.71h.14a.27.27,0,0,0,.38,0Z"/><path id="패스_1520" data-name="패스 1520" class="cls-27" d="M1270.69,136.53h.28a18.18,18.18,0,0,1,1.57-1.71,11.1,11.1,0,0,1,4.57-3c-.15,0-.15-.15-.15-.29a9.59,9.59,0,0,0-4.85,3.14c-.57.57-1,1.14-1.57,1.71C1270.54,136.53,1270.54,136.53,1270.69,136.53Z"/><path id="패스_1521" data-name="패스 1521" class="cls-28" d="M1277.11,132h0a1.18,1.18,0,0,0,.71-.14h.57c.14,0,.28-.43,0-.43a1.67,1.67,0,0,0-1.43.14.14.14,0,0,1-.14.14h0A.3.3,0,0,0,1277.11,132Z"/><path id="패스_1522" data-name="패스 1522" class="cls-27" d="M1267.26,135.39a13.23,13.23,0,0,1,.58-1.85c.71-3.14,1.56-6.28,3.56-8.85l-.29.29c-.14.14-.28,0-.42-.14-2,2.13-2.86,5.42-3.57,8.41-.14.57-.28,1.28-.43,1.85C1266.84,135.25,1267,135.25,1267.26,135.39Z"/><path id="패스_1523" data-name="패스 1523" class="cls-28" d="M1271.12,125c.14,0,.14-.14.28-.29s.14-.28.29-.42.57-.43.71-.72c.28-.14.14-.28,0-.28a2.28,2.28,0,0,0-1,.57,1.48,1.48,0,0,0-.71.86V125C1270.83,125,1271,125.12,1271.12,125Z"/><path id="패스_1524" data-name="패스 1524" class="cls-27" d="M1275.25,124.27a.12.12,0,0,0-.14.13h0c-.14.14-.14.28-.29.28h0Z"/><path id="패스_1525" data-name="패스 1525" class="cls-27" d="M1268.69,136c.29-.57.71-1.28,1-1.85,1.56-2.86,3.28-5.71,5.13-8.42h0c-.14,0-.28-.14-.43-.28v-.15a55.06,55.06,0,0,0-5.27,8.7l-.86,1.72C1268.41,135.82,1268.55,136,1268.69,136Z"/><path id="패스_1526" data-name="패스 1526" class="cls-28" d="M1274.68,125.69h0c.43,0,.57-.28.71-.57l.43-.85c.14-.29-.14-.43-.28-.29l-.29.29-.43.42h0c-.14.15-.42.29-.42.57v.15A.3.3,0,0,0,1274.68,125.69Z"/><path id="패스_1527" data-name="패스 1527" class="cls-27" d="M1268.26,124.55h0c-.14.29-.28.43-.28.57h0C1268.12,124.84,1268.12,124.69,1268.26,124.55Z"/><path id="패스_1528" data-name="패스 1528" class="cls-27" d="M1266,134.68c.14-.57.29-1.29.43-1.86.57-2.28,1.14-4.42,1.85-6.7h0c-.14,0-.43,0-.43-.28v-.15a51.53,51.53,0,0,0-1.85,6.56c-.14.72-.28,1.29-.43,2C1265.7,134.54,1265.84,134.54,1266,134.68Z"/><path id="패스_1529" data-name="패스 1529" class="cls-28" d="M1268.12,126.12h0a.79.79,0,0,0,.43-.71,2.61,2.61,0,0,0,.14-1c0-.28-.28-.28-.43-.14a.47.47,0,0,1-.14.29c-.14.14-.14.28-.29.42h0c-.14.29-.28.43-.28.72v.14C1267.83,126.12,1268,126.26,1268.12,126.12Z"/><path id="패스_1530" data-name="패스 1530" class="cls-27" d="M1269.4,136.25c.43-.57.86-1.29,1.29-1.86,1-1.28,1.85-2.42,3-3.71l-.14-.14a39.71,39.71,0,0,0-3.14,3.71,19.63,19.63,0,0,0-1.28,1.85C1269.26,136.25,1269.26,136.25,1269.4,136.25Z"/><path id="패스_1531" data-name="패스 1531" class="cls-28" d="M1273.68,130.68h0c.29.15.57,0,.57-.28a2.38,2.38,0,0,1,.57-1c0-.14,0-.28-.14-.14-.43.14-.71.57-1.14.86a.27.27,0,0,0,0,.38l0,.05Z"/><path id="패스_1532" data-name="패스 1532" class="cls-29" d="M1252,186.73a1.83,1.83,0,0,1-.42-.57c0,.72-.15,1.29-.15,2a24.59,24.59,0,0,0-2.56-4.7c-.43,0-.86.14-1.29.14a4.64,4.64,0,0,1-3-1.14v.14a5.18,5.18,0,0,1-1.43,2.14,13.77,13.77,0,0,0,1.71,2.56l.43.43a4.53,4.53,0,0,1,1.57-1.71c.14-.29.14-.57.29-.86.14-.57,1-.42.85.15v.14a5.06,5.06,0,0,1,.57,1.28,5.32,5.32,0,0,1,.86,3v.14a3.83,3.83,0,0,0,2.14.29v4.28a5.32,5.32,0,0,1,.14,2.14c.14,2.71.43,5.42.86,8.27C1253.43,194.72,1252.57,190.16,1252,186.73Z"/><path id="패스_1533" data-name="패스 1533" class="cls-29" d="M1255.14,168.48c.56-3,1.28-6,2.14-9v-.14h0a34.48,34.48,0,0,1,1.85-4.7c.15-.15-.14-.29,0-.43,1.72.28,4-2,4-2.14h0c.57-.29.71-.43.71-.57s-.57-.15-.85-.15a3.08,3.08,0,0,0-2.29-.42,2.33,2.33,0,0,0-1.28.42l-.86-2.13c-.42-.86-.85-1.72-1.71-2,0-.14-.43-.57-.43-.29h0a5.64,5.64,0,0,0,.72,5.42c.42.57.71,2.43-.43,6v.15c-.43,1.28-.86,2.56-1.28,4s-.72,2.71-1.15,4.14c.15.42.29.71.43,1.14A2.69,2.69,0,0,1,1255.14,168.48Z"/><path id="패스_1534" data-name="패스 1534" class="cls-29" d="M1253,177.61a6.47,6.47,0,0,1,.57-3.28,2,2,0,0,1,.29-.86c-.43.28-.71.71-1.14,1l-.43,2.58c.14.57.43,1.14.57,1.71.14-.15.14-.29.29-.43A6,6,0,0,1,1253,177.61Z"/><path id="패스_1535" data-name="패스 1535" class="cls-29" d="M1257.28,194.72c-.14.14-.43.28-.57.57a30.64,30.64,0,0,0-.29,6.56c.15,0,.43-.14.58-.14a12.14,12.14,0,0,0,2.28-1.14c.34-2.64.82-5.26,1.42-7.85-.14,0-.14.15-.28.15A12,12,0,0,0,1257.28,194.72Z"/><path id="패스_1536" data-name="패스 1536" class="cls-29" d="M1264.13,191.15a.14.14,0,0,0-.14-.14h0v.14h-.14c-.43,1.43-.71,3-1.14,5A20.28,20.28,0,0,0,1264.13,191.15Z"/><path id="패스_1537" data-name="패스 1537" class="cls-29" d="M1242,179.89c-.14-.15-.14-.29-.28-.43-.15-.29.14-.71.42-.57s.29.14.43.28l.29-.28a7.58,7.58,0,0,1-1.14-.57v-.15c0-.14-.15,0-.15,0a8.38,8.38,0,0,0,.29,1.86C1241.88,180.17,1242,180,1242,179.89Z"/><path id="패스_1538" data-name="패스 1538" class="cls-29" d="M1247.87,172.76c-.14-.72-.43-1.29-.57-2h0a18.23,18.23,0,0,1-1-2.57,21.1,21.1,0,0,0-1.85-1.42c-.43,0-.86.14-1.15.14a16,16,0,0,0,.43,3.71,8.12,8.12,0,0,1,2.57.57A5.46,5.46,0,0,1,1247.87,172.76Z"/><path id="패스_1539" data-name="패스 1539" class="cls-29" d="M1248.58,175.75c-.14.29-.28.29-.57.14a7,7,0,0,1-1.71.15,13.57,13.57,0,0,0,2.28,1.71,8.66,8.66,0,0,0,1.14.57c-.43-.86-.71-1.71-1.14-2.57Z"/><path id="패스_1540" data-name="패스 1540" class="cls-29" d="M1257,174.18c0-.14.42-.14.42-.14h0c0-.29.29-.29.29,0s-.29.57-.43.86a4.91,4.91,0,0,1,.57,1.28c.15.57.29,1.14.43,1.85a42.76,42.76,0,0,1,2.57-5.84,2.64,2.64,0,0,1-1.14-.29c-.43.14-.86.43-1.29.57a10.75,10.75,0,0,0-2,1.57,1.86,1.86,0,0,0,.57.43C1256.85,174.33,1257,174.33,1257,174.18Z"/><path id="패스_1541" data-name="패스 1541" class="cls-29" d="M1262.13,174a14.46,14.46,0,0,1-1,3.28h0a9.54,9.54,0,0,0,1.71-1.71v-.15a4.67,4.67,0,0,1,.29-2.42.87.87,0,0,1-.57-.14A9.2,9.2,0,0,0,1262.13,174Z"/><path id="패스_1542" data-name="패스 1542" class="cls-30" d="M1256.85,147.09a3.36,3.36,0,0,1,1.72,2c.28.57.57,1.43.85,2.14a12.19,12.19,0,0,0,1.29-.43,3.38,3.38,0,0,1,2.28.43c.14,0,.71,0,.85.14a29.36,29.36,0,0,0,3-2.56c1.85-1.71,3.56-3.57,5.42-5.42.85-.86,1.71-1.71,2.56-2.43a17.4,17.4,0,0,1,2-1.28h.14a1.45,1.45,0,0,0,.72-.57.53.53,0,0,0,.14-.43c0-.14,0-.14-.14-.28s-.15-.72-.57-.72c-2-.43-4.14-.71-6.14-1h-.42c-.29-.15-.72-.15-1-.29s-.28-.14-.43-.14-.28-.14-.43-.14-.28-.15-.42-.15-.72-.28-1-.42-.28-.15-.43-.29-.42-.28-.71-.43-.43-.28-.57-.43a6.15,6.15,0,0,0-1-.57c-.14-.14-.28-.28-.42-.28-.43-.29-.72-.57-1.14-.86-1.15-.85-2-1.57-3.14-2.42-.44-.43-1.58-1.43-2.29-1.43-.29.14-.43.14-.57.29a.62.62,0,0,0,0,.71.42.42,0,0,0,0,.57c1,1.71.71,4,.57,5.85-.15,1.14-.29,2.14-.43,3.28a14.15,14.15,0,0,0-.29,2.42c0,.57-.14,1.14-.14,1.71,0,.72-.28,1.86-.28,3.14h0C1256.43,146.51,1256.85,147.09,1256.85,147.09Z"/><path id="패스_1543" data-name="패스 1543" class="cls-31" d="M1251.43,185.88c0,.14.15.14.15.28a2.37,2.37,0,0,1,.43.57c0-.28-.15-.57-.15-.85s-.14-.57-.14-1a11.26,11.26,0,0,1-.57-2.14A4.09,4.09,0,0,0,1251.43,185.88Z"/><path id="패스_1544" data-name="패스 1544" class="cls-31" d="M1266.84,185.73c.14-.28-.15-.71-.43-.57s-.43.15-.57.29l-.14-.14c-.43.85-.72,1.85-1.15,3A6.6,6.6,0,0,0,1266.84,185.73Z"/><path id="패스_1545" data-name="패스 1545" class="cls-31" d="M1254.14,173.33h0l-.28.28c-.14.29-.14.57-.29.86a4.43,4.43,0,0,0-.57,3.28,2,2,0,0,0,.29.85c.14-.14.28-.42.43-.57,1.14-1.14,2.7-1.85,3.13-3.42h0a1.86,1.86,0,0,0-.57-.43,5.77,5.77,0,0,0-1-.71l-.43-.86c0-.14,0-.14-.14-.14A2.19,2.19,0,0,1,1254.14,173.33Z"/><path id="패스_1546" data-name="패스 1546" class="cls-31" d="M1258.28,178c-.14-.57-.29-1.28-.43-1.85a4.91,4.91,0,0,0-.57-1.28h0a5.82,5.82,0,0,1,.14,4.13,4.27,4.27,0,0,1-1.71,1.86l1.29.85c-.43,1.14-.72,2.43-1.15,3.57a4.62,4.62,0,0,0-.85-.86c-.29-.28-.57-.43-.86-.71.29,1.14.57,2.71.86,4.7.14,0,.14,0,.28.15s-.14.28-.14.57a78.83,78.83,0,0,1,0,16.54h1.57a35.29,35.29,0,0,1-.14-3.71c0-2.71.14-4.85.28-6.56.14-1,.29-1.85.43-2.85a3.06,3.06,0,0,1,.14-1c.15-.71.43-1.57.57-2.28.15.43,1.86.86,3.57.71h.14c.57-1.85,1-3.42,1.57-4.85h-.85a12.25,12.25,0,0,0-3.57,1c.43-1.28.86-2.71,1.28-4h.15a.34.34,0,0,0,.45.21.37.37,0,0,0,.12-.07,7.33,7.33,0,0,0,3.85-.43,13,13,0,0,1,1.57-2.85,6.93,6.93,0,0,1-2.14-2,5.73,5.73,0,0,0-1.43.58,4.2,4.2,0,0,0-1.57,1.56c.15-.57.29-1.28.43-1.85h0a12.57,12.57,0,0,0,1-3.28c.14-.43.28-.71.43-1.14.14,0,.42.14.57.14a5.3,5.3,0,0,1,.71-1.57c0-.28-.57-.57-.57-1s-.14-.14-.14.14h0s.71,0,.71.14.14.15.14.29a3.71,3.71,0,0,0,1,2.14,9.47,9.47,0,0,0,3.42-.86,9.52,9.52,0,0,1-1.43-1.85h0a5,5,0,0,1-.71-1.86h-.14a9.73,9.73,0,0,0-2.86,1.57c.15-.42.43-1,.58-1.42.42-1,1-2.14,1.42-3.14.14.28.29.43.57.28a.52.52,0,0,0,.43-.14.56.56,0,0,1,.43.14,7.92,7.92,0,0,1,.86-1.14l.85-1.29v-.14a.43.43,0,0,1,.43-.43.43.43,0,0,1,.43.43,2,2,0,0,0,.14.86,3.9,3.9,0,0,1,1,1.14,11.85,11.85,0,0,0,2.86-1.71c.14,0,.28,0,.28-.14a4.84,4.84,0,0,1-.85-1.43,8.63,8.63,0,0,0-3.28-.14c-1.72.14-2.57,1.14-3.57,2.28a7.14,7.14,0,0,0,.71-1.57c.86-1.43,1.72-2.85,2.71-4.28a5.9,5.9,0,0,0,3.43.86,5.54,5.54,0,0,1,1.42-2.14,1.31,1.31,0,0,1,.57-1.14c.15-.15.29,0,.29.14-.15.14-.29.29-.29.43l.15-.14c.14-.15.28.14.14.14l-.43.43a2.28,2.28,0,0,0,.71,1.42h.15c.71-.28,1.57-.43,2.28-.71.28-.14.14-.57,0-.57a1.23,1.23,0,0,1-.57-.14c-.43-.86-1.57-1.15-2.43-1.43a5.92,5.92,0,0,0-4.28,1.14c.43-.57.86-1.28,1.29-1.85l.43-.43a8.19,8.19,0,0,1,1-1.29h0a.54.54,0,0,1,.29.15c1.42,1.42,4.13,0,5.42-.86.42-.28-.15-1-.58-.85a.13.13,0,0,0-.14.13h0a4.38,4.38,0,0,0-3.56-.14,30.91,30.91,0,0,0,2-2.57c.29-.29-.28-.71-.57-.43a17.07,17.07,0,0,0-2.14,2.57,2,2,0,0,0-.28-.86,7.63,7.63,0,0,0-1.43-2.28v-.29c0-.28-.28-.28-.43,0h0a.3.3,0,0,0-.28.43.47.47,0,0,1,.14.29,14.41,14.41,0,0,0-1,2.71c0,1,.85,1.57,1.71,1.85-1,1-1.86,2-2.71,3-.14-1.29-1.57-2.86-2.28-4.14a2,2,0,0,0,0-1.28c-.15-.29-.43-.15-.43.14v-.29s-.14-.14-.14,0a1.91,1.91,0,0,0,0,1.29,21,21,0,0,1-1.15,1.85,2.83,2.83,0,0,0,0,2.14c.15.14.15.29.29.43a4.5,4.5,0,0,0,2,2c-.15.14-.29.28-.29.42a9.22,9.22,0,0,0-1.14,2c-.57.71-1,1.43-1.57,2.28a2.14,2.14,0,0,0-.28-1c-.29-.57-.86-1.14-1.14-1.72a11.36,11.36,0,0,1-1-1.85,1.39,1.39,0,0,0-.57-1,.15.15,0,0,0-.14-.15h0c0-.14-.15,0-.15,0,.15.29.15.57.29.86a7,7,0,0,1-1,2.57,3.2,3.2,0,0,0,0,2.28,6.25,6.25,0,0,0,2.43,2.71,8.66,8.66,0,0,1-.57,1.14c-.57,1-1,2-1.57,3a8.29,8.29,0,0,0-.71-2c-.58-1-2.29-1.72-2.57-2.86.14-.14.14-.28.28-.42s-.14-.29-.28-.15a.15.15,0,0,1-.14.15h0a1.08,1.08,0,0,1,.13-.58c0-.14-.14-.28-.29-.14a1.44,1.44,0,0,0-.28,1.28,5.7,5.7,0,0,0-.57,4.56,3.74,3.74,0,0,0,2.14,2.28,3.2,3.2,0,0,0,1.14.29C1259.85,174.18,1259,176,1258.28,178Z"/><path id="패스_1547" data-name="패스 1547" class="cls-32" d="M1244.59,182.45a7.7,7.7,0,0,0,3,1.15,4,4,0,0,0,1.29-.15,3.33,3.33,0,0,0,2.14-.85v.14c.14.71.42,1.43.57,2.14a2.56,2.56,0,0,0,.14,1c0,.29.14.57.14.86.57,3.57,1.43,8,.43,18.11a1.93,1.93,0,0,1-.14.86h2.71a70.48,70.48,0,0,0,0-16.55.89.89,0,0,0-.14-.57c-.29-2-.57-3.56-.86-4.7a14.66,14.66,0,0,0-.57-1.85,5.38,5.38,0,0,0,2-1,5.32,5.32,0,0,0,1.71-1.85,6,6,0,0,0-.14-4.14h0c.14-.28.42-.57.42-.86s-.14-.28-.28,0h0s-.43,0-.43.15v.28h0c-.43,1.57-2,2.28-3.14,3.43a1.83,1.83,0,0,0-.42.57c-.15.14-.15.28-.29.42-.14-.57-.43-1.14-.57-1.71-.29-.57-.43-1.28-.71-1.85.28-.29.71-.43,1-.71a7.29,7.29,0,0,0,1.14-1c.15-.14.15-.14.29-.14h0a2.55,2.55,0,0,0,.71-1,6.2,6.2,0,0,0,.57-1.42,4.08,4.08,0,0,0-.28-2.29l-.43-.85c-.14-.43-.29-.71-.43-1.14,0-.15-.14-.15-.14-.29v-.14c.14-.57-.71-.71-.86-.14-.14.28-.14.57-.28.85a3.83,3.83,0,0,0-2.28,3,8.2,8.2,0,0,0-.29,1.85c-.86-2-1.71-3.85-2.71-5.7a4.08,4.08,0,0,0,3.14-2.71,5.26,5.26,0,0,0-.71-4.57,2.14,2.14,0,0,0-.29-1.28c-.14-.14-.28,0-.28.14s.14.29.14.57a.14.14,0,0,0-.14-.14h0c-.15-.14-.29,0-.29.14s.14.29.29.43c-.29,1.14-2,1.85-2.57,2.85a4.66,4.66,0,0,0-.57,2c-.57-1-1-2-1.57-3a8.42,8.42,0,0,0-.72-1.14,6.07,6.07,0,0,0,2.43-2.71,3.2,3.2,0,0,0,0-2.28,7,7,0,0,1-1-2.57,8.78,8.78,0,0,0,.29-1c0-.14-.14-.14-.14,0a.15.15,0,0,1-.14.15h0a1.84,1.84,0,0,0-.57,1,7.73,7.73,0,0,1-1,1.86c-.29.57-.86,1.14-1.14,1.71a2.39,2.39,0,0,0-.15,1,20.52,20.52,0,0,0-1.57-2.28c-.42-.57-.85-1.28-1.28-1.85-.14-.15-.28-.29-.28-.43a3.93,3.93,0,0,0,1.85-2.14.72.72,0,0,0,.28-.57,2.74,2.74,0,0,0,0-2.14c-.28-.57-.85-1.28-1.14-1.85a3.74,3.74,0,0,0-.14-1.29H1240v.28c0-.28-.28-.28-.43,0a2,2,0,0,0,0,1.29c-.71,1.42-2,2.85-2.13,4.28-.86-1-1.86-2-2.86-3a2,2,0,0,0,1.57-2,15.14,15.14,0,0,0-1-2.71c0-.15.14-.15.14-.29s-.14-.43-.29-.43h0c0-.28-.42-.14-.42,0V142a7.15,7.15,0,0,0-1.29,2.28,1.93,1.93,0,0,0-.14.86,18.74,18.74,0,0,0-2.28-2.43c-.29-.28-.72.14-.57.43.71.85,1.42,1.71,2.13,2.42a4.43,4.43,0,0,0-3.56.29c-.14,0-.14,0-.29-.14-.42-.15-1,.42-.57.85,1.29,1,4.14,2.14,5.42.71.15,0,.29,0,.29-.14h0a8.26,8.26,0,0,0,1,1.14l.43.43a21.22,21.22,0,0,1,1.43,1.85,7,7,0,0,0-4.42-1c-.86.14-2,.57-2.29,1.42a1.16,1.16,0,0,0-.57.15c-.28.14-.28.57,0,.57a12.89,12.89,0,0,0,2.28.57,6.18,6.18,0,0,0,2.14.57,5.68,5.68,0,0,0,4-1c1,1.42,2,2.7,2.85,4.13.28.57.57,1,.86,1.57a5.76,5.76,0,0,0-3.71-2.14c-.86,0-3,0-3.85.86a.43.43,0,0,0-.4.46.47.47,0,0,0,.11.25.45.45,0,0,0,.43.43c1.85,1.42,4.7,2.56,7,1.85h.42c.29,0,.58-.14.58-.43a21.35,21.35,0,0,1,1.56,3.14c.15.43.43,1,.58,1.43a6.78,6.78,0,0,0-2.86-1.43c-1.71-.43-3.56-.14-4.42,1.43h0v.42a.27.27,0,0,0-.05.38s0,0,.05,0a8.4,8.4,0,0,0,6,2.14,2.91,2.91,0,0,0,1.14-.14,2.64,2.64,0,0,0,1.14-.29c.15.43.29.71.43,1.14,0,.15.14.43.14.57a13.83,13.83,0,0,0,1,2.57h0c.14.71.43,1.28.57,2a3.62,3.62,0,0,0-1.71-1.57,4.9,4.9,0,0,0-2.57-.57,5.34,5.34,0,0,0-3.28.85v.15a.4.4,0,0,0-.57.57,8.9,8.9,0,0,0,6.56,4,7,7,0,0,0,1.71-.14c.15.14.43,0,.57-.15h.15l.86,2.57.43,1.28a8.68,8.68,0,0,0-3.57-.86,24.61,24.61,0,0,0-2.71.15A4.08,4.08,0,0,1,1244.59,182.45Z"/><path id="패스_1548" data-name="패스 1548" class="cls-32" d="M1241.88,179.6c.14.15.14.29.28.43a2.29,2.29,0,0,0,.57-.71c-.14-.15-.28-.15-.42-.29S1241.59,179.32,1241.88,179.6Z"/><path id="패스_1549" data-name="패스 1549" class="cls-32" d="M1298.07,149.22h-.28a4.25,4.25,0,0,0-3.43-1.14,30.91,30.91,0,0,0,2.57-2c.28-.29,0-.72-.43-.57-1,.57-1.85,1.28-2.85,1.85v-.86a9.11,9.11,0,0,0-.71-2.56c0-.15,0-.15.14-.29s-.29-.28-.29-.14h0c-.14,0-.42.14-.42.28v.29a8.67,8.67,0,0,0-1.57,2.42,2.4,2.4,0,0,0,1.28,2.43c-1.14.71-2.28,1.42-3.42,2.28.14-1.28-.86-3.14-1.14-4.7a1.38,1.38,0,0,0,.28-1.29c0-.28-.28-.28-.43,0v.14a.51.51,0,0,1,.15-.42s0-.15-.15,0a9.15,9.15,0,0,1-.42,1.14c-.43.57-1.14,1-1.57,1.57a2.7,2.7,0,0,0-.57,2.14c0,.14.14.42.14.57a4.42,4.42,0,0,0,1.28,2.56l-.42.43a15.51,15.51,0,0,0-1.57,1.57,11.77,11.77,0,0,0-2,1.86c0-.43.14-.72,0-1-.14-.71-.57-1.28-.71-2s-.43-1.42-.57-2.14a1.72,1.72,0,0,0-.29-1.14v-.15c0-.14-.14-.14-.14,0v1a9.64,9.64,0,0,1-1.57,2.28,2.68,2.68,0,0,0-.57,2.28,6.11,6.11,0,0,0,1.71,3.28c-.29.29-.57.71-.86,1-.71.85-1.56,1.71-2.28,2.56a10.27,10.27,0,0,0-.14-2.14,6.59,6.59,0,0,0-1.14-1.84,7.06,7.06,0,0,1-.71-1.43l.42-.43c.15-.14,0-.28-.14-.14a.14.14,0,0,0-.14.14h0c0-.14.14-.28.28-.43s-.14-.28-.28-.14a1.45,1.45,0,0,0-.57,1.14,7,7,0,0,0-1.43,2.14,4.86,4.86,0,0,0-.28,2,2.45,2.45,0,0,0,.28,1,3.8,3.8,0,0,0,.86,1.43,3.22,3.22,0,0,0,1.42,1c-1.42,1.57-2.71,3.28-4,5a8.26,8.26,0,0,0,0-1.86,4.41,4.41,0,0,0-.71-2.28,7.23,7.23,0,0,0-1-1.14c0-.29-.14-.57-.14-.86,0-.57-1-.57-.86,0v.15a3.27,3.27,0,0,0-.85,1.28c-.29.43-.57.71-.86,1.14a4,4,0,0,0-.57,1.86v.85a5,5,0,0,0,.71,1.86h0a9.59,9.59,0,0,0,1.43,1.86c.14.14.28.43.57.57-.71,1-1.43,2.14-2,3.14a7.58,7.58,0,0,0-.57-1.14l-1.42-1.86a4,4,0,0,1-.86-2.14c0-.14-.43-.14-.29-.28s-.71-.14-.71-.14h0c0-.29.14-.43.14-.15s.29.57.43,1c-.28.57-.43,1-.71,1.57a3.42,3.42,0,0,0-.14,2.42V176a5.94,5.94,0,0,0,2.85,3.57,18.39,18.39,0,0,0-1.57,2.85,33.26,33.26,0,0,0-1.28,3.14c-.58,1.43-1,3-1.57,4.85-.29.86-.43,1.71-.72,2.57-.57,2.28-1,5-1.42,7.84a49.26,49.26,0,0,0-.57,5.14l2.71-.15a66,66,0,0,1,1.28-9.27,39.14,39.14,0,0,1,1.14-5c.29-1,.57-1.85.86-2.71.43-1.14.71-2.14,1.14-3s.71-1.57,1-2.28a2,2,0,0,0,.29-.86c.43-.71.71-1.43,1.14-2.14.14.43,1.57,1.28,3.14,1.71,2.42.57,4.85-1,6.56-2.56.28-.29,0-.72-.29-.57-.14,0-.42.14-.57.14-.28-.86-3.14-1.43-3.42-1.43a11,11,0,0,0-3.71.15c.71-1.15,1.57-2.43,2.28-3.57h.14c0,.28.29.28.43.28,2.71,1.43,7.13.29,9-1.85a.43.43,0,0,0,0-.61.42.42,0,0,0-.4-.1V172a5.76,5.76,0,0,0-5.56-1.42,4.11,4.11,0,0,0-2,1.14c.29-.57.71-1.14,1-1.71h0a20,20,0,0,0,1.86-2.86c.28-.28.43-.71.71-1a8.73,8.73,0,0,0,8.56.14c.14-.14.28-.29.14-.43s.14-.28.14-.43h0c-.57-1.71-2.42-2.28-4-2.42a6.92,6.92,0,0,0-3.14.85l.86-1.28c.71-.86,1.42-1.71,2.28-2.71,0,.28.28.43.57.43h.43c2,1.28,5.13.71,7.27-.29.29.15.43,0,.57-.28a.39.39,0,0,0,.19-.5.39.39,0,0,0-.33-.22c-.57-1-2.71-1.56-3.57-1.71-1.56-.28-2.85.57-4,1.29.43-.43.71-.86,1.14-1.29,1.14-1.14,2.43-2.28,3.71-3.42,1.14.86,2,1.71,3.57,1.85a167162891989210.9,167162891989210.9,0,0,1,4.56-.28c.29,0,.29-.43.14-.57a.55.55,0,0,0-.42-.15,2.92,2.92,0,0,0-2-1.85c-1.29-.71-3-.43-4.42,0,.57-.43,1.14-1,1.71-1.43.14-.14.28-.28.43-.28a7.73,7.73,0,0,0,1.28-1h0c.14.15.14.15.29.15,1,1.71,4,1.14,5.41.57C1298.93,149.94,1298.64,149.22,1298.07,149.22Z"/><path id="패스_1550" data-name="패스 1550" class="cls-31" d="M1248.15,200.14a5.44,5.44,0,0,0,3.29-2.85,1,1,0,0,0,.14-.57,3.63,3.63,0,0,0-.14-2.14c-.15-.43-.29-.72-.43-1.14s.28-.57.28-.86-.14-.14-.28,0h0s-.43,0-.43.14V193c-.28,1.43-1.85,2.28-2.71,3.28a3.66,3.66,0,0,1-.71.86c-.43-1.14-.86-2.14-1.29-3.28A12.64,12.64,0,0,0,1248,192h0a5.11,5.11,0,0,0,1.14-2.14v-.14a5.59,5.59,0,0,0-.85-3c-.15-.43-.43-.85-.57-1.28v-.14c.14-.58-.72-.58-.86-.15a2.13,2.13,0,0,1-.28.86,3.59,3.59,0,0,0-1.58,1.71,3.64,3.64,0,0,0-.43,1.29c-.14.57-.14,1.14-.28,1.71-.86-1.71-1.85-3.57-2.85-5.28a6.2,6.2,0,0,0,1.42-.57,3.61,3.61,0,0,0,1.43-2.14v-.14a4.48,4.48,0,0,0-.71-3.57c-.15-.14-.15-.28-.29-.43a1.28,1.28,0,0,0-.43-1.14c-.14-.14-.28,0-.28.15a.51.51,0,0,1,.14.42l-.14-.14c-.15-.14-.29,0-.15.14s.15.29.29.43a1.07,1.07,0,0,1-.29.57.3.3,0,0,1-.28.29c-.14.28-.43.43-.57.71l-.29.29a2.58,2.58,0,0,0-.71,1,4,4,0,0,0-.43,1.86c-.57-.86-1-1.72-1.57-2.71-.28-.29-.42-.72-.71-1a5.51,5.51,0,0,0,2.14-2.71,2.29,2.29,0,0,0-.14-2.14,10.8,10.8,0,0,1-1.14-2.28c0-.29.14-.57.14-.86,0-.14-.14-.14-.14,0v.15a1.25,1.25,0,0,0-.43,1c-.29.57-.57,1.29-.86,1.86a18.1,18.1,0,0,0-1,1.71,2.08,2.08,0,0,0-.15,1,10.75,10.75,0,0,0-1.57-2,4.34,4.34,0,0,0-1-2c-.14-.14-.29-.29-.29-.43a3.92,3.92,0,0,0,1.72-2c.14-.14.28-.28.28-.42a2.76,2.76,0,0,0-.28-2.14c-.29-.57-.86-1.14-1.14-1.71a3.2,3.2,0,0,0-.15-1.15h-.14v.29c0-.29-.29-.29-.43,0a1.56,1.56,0,0,0,.14,1.14c-.57,1.28-1.71,2.85-1.85,4-.86-.85-1.85-1.71-2.71-2.56a1.81,1.81,0,0,0,1.43-1.86,9.4,9.4,0,0,0-1.14-2.42.12.12,0,0,1,.13-.14h0c.14-.15-.14-.43-.29-.29h0c0-.28-.28-.14-.28,0v.29a10.8,10.8,0,0,0-1.14,2.28c0,.28-.15.57-.15.86a10.29,10.29,0,0,0-2.28-2.14.3.3,0,0,0-.43,0,.31.31,0,0,0,0,.42h0c.63.8,1.3,1.56,2,2.29a4.36,4.36,0,0,0-3.28.43.14.14,0,0,1-.14-.14h0c-.43-.14-.86.43-.43.71,1.28.86,4,1.86,5.14.43.14,0,.14,0,.28-.14h0a7.17,7.17,0,0,0,1,1.14l.42.43a15.11,15.11,0,0,0,1.43,1.56,7.23,7.23,0,0,0-4.14-.71c-.71.29-1.85.71-2.14,1.43a.51.51,0,0,0-.42.14.22.22,0,1,0,0,.43,11.76,11.76,0,0,0,2.14.43,9.52,9.52,0,0,0,2,.42,5.8,5.8,0,0,0,3.57-1c1,1.28,2,2.42,2.85,3.71.29.43.57,1,.86,1.42-1-.85-2-1.85-3.43-1.85-.85,0-2.85.14-3.56,1a.43.43,0,0,0-.4.46.47.47,0,0,0,.11.25c0,.14.29.43.43.28,1.71,1.29,4.56,2.29,6.56,1.43h.43c.28,0,.43-.14.57-.43a18.39,18.39,0,0,1,1.57,2.85c.14.43.43.86.57,1.29a5.88,5.88,0,0,0-2.71-1.29c-1.57-.28-3.28,0-4.14,1.57h0V184a.28.28,0,0,0,0,.38l0,.05a8.28,8.28,0,0,0,7.85,1.28c.14.29.28.71.43,1a16.62,16.62,0,0,0,1.14,2.85h0c.14.57.43,1.14.57,1.71a4.89,4.89,0,0,0-1.57-1.43,6.06,6.06,0,0,0-5.42.43v.14c-.43-.28-.72.14-.57.57,1.42,2.28,5.27,4.14,8,3.14.15.14.43,0,.57-.14h.15c.43,1.28,1,2.42,1.43,3.56a10.59,10.59,0,0,0-3.28-.71c-.29,0-3,0-3.42.71-.15-.14-.29-.14-.58-.28s-.57.28-.42.57c1.28,1.71,3.28,3.56,5.56,3.42,1.57,0,3-.57,3.14-1a12.38,12.38,0,0,0,.71,2.13c0,.29.14.58.14.86l.43,1.71,2.57.15A25.91,25.91,0,0,0,1248.15,200.14Z"/><path id="패스_1551" data-name="패스 1551" class="cls-30" d="M1256.57,205.56h-4.28l-2.71-.14H1247l-2.42-.15s3.85,17,0,32.52,1.14,27.81,3.28,35.94-3.14,17-3.14,17l8.56.14h1.42l8.42-.14s-5.42-8.84-3.28-17,7-20.4,3.28-35.94,0-32.52,0-32.52h-1.57l-2.71.15Z"/></g><g id="그룹_905" data-name="그룹 905"><g id="_그룹_" data-name="&lt;그룹&gt;"><path id="_컴파운드_패스_" data-name="&lt;컴파운드 패스&gt;" class="cls-33" d="M1356.31,247.59h-71a4.17,4.17,0,0,0-4.07,4.21v34.65a4.14,4.14,0,0,0,4,4.21h71.08a4.17,4.17,0,0,0,4.07-4.21V251.8A4.23,4.23,0,0,0,1356.31,247.59Zm-2.79,36.26h-65.43v-29.4h65.43Z"/><rect class="cls-34" x="1288.09" y="254.45" width="65.43" height="29.4"/><rect id="_패스_" data-name="&lt;패스&gt;" class="cls-35" x="1306.91" y="241.82" width="27.8" height="5.72"/></g><g id="그룹_904" data-name="그룹 904"><path id="패스_1552" data-name="패스 1552" class="cls-36" d="M1333.57,262.48v5.35l-1.08,1.08-1-1.08v-5.35l1-1.08Zm0,8,.05,5.16-1.09,1.09-1-1.09,0-5.16,1-1.08Z"/><path id="패스_1553" data-name="패스 1553" class="cls-36" d="M1342.51,262.48v5.35l-1.09,1.08-1-1.08v-5.35l1-1.08Zm0,8,0,5.16-1.08,1.09-1-1.09,0-5.16,1-1.08Z"/><path id="패스_1554" data-name="패스 1554" class="cls-36" d="M1301.09,263.62v4.21l-1.09,1.08-1-1.08v-4.21l1-1.09Zm.05,6.85v4.21l-1.09,1.09-1-1.09v-4.21l1-1.08Zm.19-9.17h4.2l1.09,1.09-1.09,1h-4.2l-1.09-1Zm0,13.57h4.2l1.09,1.09-1.09,1h-4.2l-1.09-1Zm6.43-11.25v4.21l-1.09,1.08-1-1.08v-4.21l1-1.09Zm0,6.85v4.21l-1.08,1.09-1-1.09v-4.21l1-1.08Z"/><path id="패스_1555" data-name="패스 1555" class="cls-36" d="M1325.58,266.74a1.26,1.26,0,0,1,0,1.7,1.15,1.15,0,0,1-1.61,0,1.26,1.26,0,0,1,0-1.7,1.06,1.06,0,0,1,.81-.33A.83.83,0,0,1,1325.58,266.74Zm.23,5.2a1.24,1.24,0,0,1,0,1.7,1.13,1.13,0,0,1-1.6,0,1.24,1.24,0,0,1,0-1.7,1,1,0,0,1,.8-.33A.88.88,0,0,1,1325.81,271.94Z"/><path id="패스_1556" data-name="패스 1556" class="cls-36" d="M1311.59,270.47v4.21l-1.09,1.09-1-1.09v-4.21l1-1.08Zm.09-2.41h4.21l1.08,1.09-1.08,1h-4.21l-1.09-1Zm0-6.76h4.21l1.09,1.09-1.09,1h-4.2l-1.09-1Zm0,13.57h4.21L1317,276l-1.09,1h-4.2l-1.09-1Zm6.48-11.25v4.21l-1.08,1.09-1-1.09v-4.21l1-1.09Z"/></g></g></g><g id="그룹_344" data-name="그룹 344"><g id="그룹_325" data-name="그룹 325"><g id="그룹_313" data-name="그룹 313"><path id="패스_331" data-name="패스 331" class="cls-13" d="M1095.7,348.31a33.9,33.9,0,0,1,15.56-12.1c10.11-3.78,20.68-1.79,27.82,5.23,6.18,6.07,9.32,15.47,8.54,25.48-.91,11.62-6.73,20.11-13.91,28.87a420.53,420.53,0,0,0-49.23,75.33c-4.76,9.32-9,22-20.07,21.4-7.3-.37-12.06-7.47-10.6-15.86a498.77,498.77,0,0,1,20.08-79q6.81-19.6,15.56-38.53A62.49,62.49,0,0,1,1095.7,348.31Z"/><g id="그룹_311" data-name="그룹 311"><path class="cls-13" d="M1082.15,500c2.07-8,4-16.08,5.65-24.2,2-9.95-2.07-20.21-12.85-22.71a17.78,17.78,0,0,0-10.5.78c-12.55,5-11.24,18.73-12.4,29.87-.56,5.43-1.23,10.85-2,16.26Z"/></g><path class="cls-9" d="M1091.63,500c5.27-11.83,10.43-21.38,18.17-31.26,32.09-41,60.67-79.06,76.84-117.26,0,0-60.55-26.33-81-38.89-23.19,57.53-49.8,120.25-66.23,187.41Z"/></g><g id="그룹_316" data-name="그룹 316"><path id="패스_344" data-name="패스 344" class="cls-13" d="M1158.94,362.27a33.92,33.92,0,0,1,4.37-19.23c5.44-9.31,14.88-14.48,24.85-13.58,8.64.8,17,6.07,22.76,14.3,6.64,9.56,7.53,19.82,7.53,31.17a421.07,421.07,0,0,0,9.62,89.46c2.22,10.22,7,22.68-2,29.27-5.89,4.35-14.08,1.86-18.26-5.56a501.68,501.68,0,0,1-34.51-73.83A413.88,413.88,0,0,1,1161,374.6,62.7,62.7,0,0,1,1158.94,362.27Z"/><g id="그룹_314" data-name="그룹 314"><path class="cls-13" d="M1214.41,500h35.41c-5-11.56-10.37-23-16.21-34.11-4.72-9-14.42-14.34-24.33-9.44a17.9,17.9,0,0,0-7.64,7.26c-6.58,11.82,3.16,21.65,9.34,31C1212.14,496.44,1213.27,498.22,1214.41,500Z"/></g><path class="cls-10" d="M1255.3,500c-7.44-19.4-13.84-32.11-19.25-48.8-15.26-47.16-11.26-104-23-143.82.78.31-60.92,29.18-84.66,32.4A866.79,866.79,0,0,0,1197.12,500Z"/></g><path id="패스_357" data-name="패스 357" class="cls-37" d="M1133.91,195.92a24.15,24.15,0,0,1-28.67,18.55c-18.73-4-36.87-11.12-52.75-21.93-12.15-8.27-38.92-26.8-26.59-44,11.84-16.55,27.82.21,39.64,6.53a108.2,108.2,0,0,0,47,12.59C1126.77,168.14,1137,181.79,1133.91,195.92Z"/><path id="패스_358" data-name="패스 358" class="cls-13" d="M1005.22,35.14c11.18-2.08,11.08,14.4,12.66,21.62l.06.25c.55,2.42,1.14,4.86,1.76,7.26q3.13,12.41,7.28,24.52a319.14,319.14,0,0,0,20.85,47.92c3.39,6.32,8.93,12.72,8.62,20.23a17.89,17.89,0,0,1-34.58,5.7,355.63,355.63,0,0,1-21.72-90.73c-.33-3.18-.62-6.38-.85-9.58-.47-6.22-.8-12.48-.92-18.76A8.34,8.34,0,0,1,1005.22,35.14Z"/><g id="그룹_317" data-name="그룹 317"><path id="패스_359" data-name="패스 359" class="cls-9" d="M1213.89,277.53c-.55,2.64-1,5.31-1.29,8a188.2,188.2,0,0,1-107.38-3.82c-.53-3.28-1.25-6.52-2.09-9.75A188,188,0,0,0,1213.89,277.53Z"/><path id="패스_360" data-name="패스 360" class="cls-10" d="M1212.58,285.51a78.76,78.76,0,0,0-.54,9.21c.11,12.72,3.84,25.24,3.84,38,0,49.43-75.53,55.36-104,26.94-6.79-6.79-9.6-17.11-9.66-26.47-.1-13.11,3.86-26,3.94-39.09a74.35,74.35,0,0,0-1-12.37A188.2,188.2,0,0,0,1212.58,285.51Z"/><path id="패스_361" data-name="패스 361" class="cls-18" d="M1086.47,197a48.65,48.65,0,0,1,5.77-15.27,54.15,54.15,0,0,1,20.58-19.78c7.26-4.1,15.63-7.88,20.47-15a56.67,56.67,0,0,0,52.74.56c5.17,6.81,12.88,12.08,21.19,17.21,6.77,4.19,13.61,8.56,18.57,14.76,12.19,15.18,6.2,40.28,1,57-4.27,13.58-10,27-12.87,41A188.2,188.2,0,0,1,1103.11,272c-3.78-14.5-10.18-28.62-14.3-43.15C1085.75,218.1,1084.44,207.37,1086.47,197Z"/><path id="패스_362" data-name="패스 362" class="cls-38" d="M1144.52,287.17a5.41,5.41,0,0,0,5.4,5.42h9.93a5.41,5.41,0,0,0,5.41-5.41h0a5.41,5.41,0,0,0-5.4-5.42h-9.92a5.42,5.42,0,0,0-5.42,5.41Z"/><path id="패스_363" data-name="패스 363" class="cls-14" d="M1193.52,152.36a81,81,0,0,1-12.68,21.51,160.33,160.33,0,0,0-24.15-19.41A194.42,194.42,0,0,1,1180.86,179,46.39,46.39,0,0,0,1193.52,152.36Z"/><path id="패스_364" data-name="패스 364" class="cls-14" d="M1126.58,153.74c2.79,7,3.72,12.27,8.56,18.11a145.41,145.41,0,0,1,21.91-17.6,174.7,174.7,0,0,0-21.93,22.26C1128.78,169.93,1127.65,162.81,1126.58,153.74Z"/><path id="패스_365" data-name="패스 365" class="cls-4" d="M1156.44,153.14l5.44,5c-.11,2.91-2.49,6-4.46,8.18,3.08,30.21,5.15,107.07,3.66,137.4l-20,21.32-14-23c-.37-6.61,14-111,24.89-136.49a12.53,12.53,0,0,1-1.6-8.92C1150.76,156.26,1156.44,153.14,1156.44,153.14Z"/></g><path id="패스_366" data-name="패스 366" class="cls-13" d="M1133.29,147c.27-.39.52-.76.76-1.17,3.94-6.63,5-14,4.29-21.59-1.48-16.31-3-42,20.11-42.66,24-.66,23,26.14,21.34,42.72-1,9.68,1.58,17.09,6.24,23.25A56.7,56.7,0,0,1,1133.29,147Z"/><path id="패스_367" data-name="패스 367" class="cls-18" d="M1245.1,279.48c-18.45,5.37-21.11-14.68-25.69-26.74-6.75-17.71-18.16-28.89-31.33-41.74-10.06-9.8-9.28-26.67,1.54-35.64,38.35-31.8,65.72,55.36,68.65,80.79,1.19,10.19-1.66,19.94-13.15,23.3a0,0,0,0,0,0,0Z"/><circle id="타원_11" data-name="타원 11" class="cls-13" cx="1003.31" cy="44.15" r="11.82"/><path id="패스_368" data-name="패스 368" class="cls-13" d="M1012.21,46a3,3,0,0,0,1.11,0,2.73,2.73,0,0,0,2.1-3.23h0l-4.18-19.43a2.73,2.73,0,1,0-5.4.84c0,.1,0,.2.06.3l4.19,19.41A2.69,2.69,0,0,0,1012.21,46Z"/><path id="패스_369" data-name="패스 369" class="cls-37" d="M1197.17,212.89,1173.7,209l-3.45,24.59s4.1,6.68,11.39,7.67,12.33-4.56,12.33-4.56Z"/><g id="그룹_321" data-name="그룹 321"><g id="그룹_318" data-name="그룹 318"><path id="패스_370" data-name="패스 370" class="cls-4" d="M1178.35,219.23l0-.29,1.52-9-.53-.11-1.48,8.79-2.69-.54,1.52-8.68-.55-.08-1.58,9.19Z"/></g><g id="그룹_319" data-name="그룹 319"><rect id="사각형_69" data-name="사각형 69" class="cls-4" x="1176.65" y="205.61" width="3.14" height="4.86" transform="translate(784.55 1337.87) rotate(-80.8)"/></g><g id="그룹_320" data-name="그룹 320"><path id="패스_371" data-name="패스 371" class="cls-38" d="M1176.32,205.48l4.39.72.19.64-4.8-.76Z"/></g></g><g id="그룹_324" data-name="그룹 324"><g id="그룹_323" data-name="그룹 323"><g id="그룹_322" data-name="그룹 322"><path id="패스_372" data-name="패스 372" class="cls-13" d="M1128.43,339.78c5.77-8.95,16-14.24,24.48-20.85a26,26,0,0,1,12.84,15.86c-8,4.4-18,7.35-22.24,15.82-1.37,2.74-2.56,5.61-4.55,7.92s-5,4.05-8,3.55-5.41-3.16-6.25-6.11a16.43,16.43,0,0,1,.49-9.11A27.09,27.09,0,0,1,1128.43,339.78Z"/><path id="패스_373" data-name="패스 373" class="cls-13" d="M1254.25,251.16c15.72,19.53-18.18,38-30.77,47.29a501.09,501.09,0,0,1-48.86,31.36c-2.95,1.68-5.92,3.34-8.88,5a26.08,26.08,0,0,0-12.85-15.86c2-1.6,4.11-3.2,6.14-4.82,8.88-7,17.62-14.31,26.06-21.77q12.15-10.79,23.57-22.29c6.83-6.91,12.89-15.53,20.46-21.62A17.89,17.89,0,0,1,1254.25,251.16Z"/></g><path id="패스_374" data-name="패스 374" class="cls-13" d="M1138.28,333.17c2.36.48,5.52.56,6.4-1.68.76-1.93-1-3.94-2.75-5a16.78,16.78,0,0,0-4.23-1.85c-2.22-.62-5.07-.53-6.2,1.48-.94,1.66-.08,3.9,1.44,5.09A12.12,12.12,0,0,0,1138.28,333.17Z"/></g></g></g><path id="패스_375" data-name="패스 375" class="cls-39" d="M1141.54,105.85a14.64,14.64,0,0,1-1.58,7.09,18.74,18.74,0,0,1-4.06-2.58,8,8,0,0,1-2.56-4,5.32,5.32,0,0,1,.88-4.58,4,4,0,0,1,4.33-1.33,4.26,4.26,0,0,1,2.3,2.23A7.79,7.79,0,0,1,1141.54,105.85Z"/><g id="그룹_329" data-name="그룹 329"><g id="그룹_326" data-name="그룹 326"><path id="패스_376" data-name="패스 376" class="cls-37" d="M1140.35,88.17l6.16,2.2c-7.57,3.92-7.2,28.48-9.13,32.07C1135.77,109.37,1136.5,98.64,1140.35,88.17Z"/><path id="패스_377" data-name="패스 377" class="cls-14" d="M1140.19,88.4s6.34,2.21,6.34,2a8.44,8.44,0,0,0-6,2.91,14.83,14.83,0,0,0-2.08,4.58c-.71,2.34-1.17,5-1.68,7.44A47.09,47.09,0,0,1,1140.19,88.4Z"/></g><g id="그룹_328" data-name="그룹 328"><g id="그룹_327" data-name="그룹 327"><path id="패스_378" data-name="패스 378" class="cls-37" d="M1182.23,124.37c-2.42-2.65-7.49-27.46-7.2-34.91l2.07-1.17-2.36.47s-1.17-2.56-1.29-2.7a12.28,12.28,0,0,0-2.55-2.49,11.94,11.94,0,0,0-12.84-.94c-2.18,1.14-3.41,3-5.17,4.55-3.08,2.74-6.12,4.66-10.24,5.26a52.8,52.8,0,0,1-6.88.49c3.41-.51,7.86-16.33,23-17.4,10.8-.76,17.24,2.81,20.5,11.47,1.07.51,2.64.62,3.74,1.13C1183.57,90.37,1183.22,99.93,1182.23,124.37Z"/><path id="패스_379" data-name="패스 379" class="cls-14" d="M1183,88.17c-3.26,1-4,.78-8,1.29,3.73,1,4.8,2,5.52,3.72,1.33,3.28,2,8,2.5,11.33.21-6.86-.06-11.15,0-16.32C1183,88.19,1183.05,88.19,1183,88.17Z"/></g></g><path id="패스_380" data-name="패스 380" class="cls-14" d="M1135.78,92.91c1.58-.35,3.18-.49,4.78-.84a17.34,17.34,0,0,0,5.37-1.83c2.94-1.78,4.52-5.08,7-7.51a13.66,13.66,0,0,1,12.91-3.48,12.53,12.53,0,0,1,8.92,9.78,12.09,12.09,0,0,0-7.32-7.16,12.26,12.26,0,0,0-10.24,1.46c-2.61,1.72-4.46,4.37-6.9,6.34A16.78,16.78,0,0,1,1135.78,92.91Z"/></g><path id="패스_381" data-name="패스 381" class="cls-37" d="M1182.72,119.65a12.93,12.93,0,0,1-11.51,4.57,20.35,20.35,0,0,0-13.17-6.07,18.92,18.92,0,0,0-13.32,4.35c-1.29,1.09-3.49.14-4.84-.84a5.8,5.8,0,0,1-2.38-4.29c-3,8.76,1.66,19.37,10,23.49,7.08,3.53,16,2.28,22.59-2.05S1180.12,127.12,1182.72,119.65Z"/><g id="그룹_335" data-name="그룹 335"><g id="그룹_333" data-name="그룹 333"><g id="그룹_332" data-name="그룹 332"><g id="그룹_330" data-name="그룹 330"><path id="패스_382" data-name="패스 382" class="cls-37" d="M1173,96.56l-8.7-2"/><path id="패스_383" data-name="패스 383" class="cls-37" d="M1173,96.4a6,6,0,0,0-1-1.76,4.58,4.58,0,0,0-1.21-1.11,3.49,3.49,0,0,0-.74-.39l-.8-.27-.84-.1a3.38,3.38,0,0,0-.84,0,5.13,5.13,0,0,0-1.58.46,6.27,6.27,0,0,0-1.7,1.12l-.06.31,4.3,1.17,4.4.86Z"/></g><g id="그룹_331" data-name="그룹 331"><path id="패스_384" data-name="패스 384" class="cls-37" d="M1153.2,95.05l-8.89,1"/><path id="패스_385" data-name="패스 385" class="cls-37" d="M1153.19,94.9a6.44,6.44,0,0,0-1.56-1.33,4.59,4.59,0,0,0-1.51-.64,2.91,2.91,0,0,0-.82-.12h-.85l-.82.18a5.75,5.75,0,0,0-.78.31,5.92,5.92,0,0,0-1.33.94,6.4,6.4,0,0,0-1.23,1.65l0,.3s2.23-.16,4.45-.35l4.43-.66Z"/></g><circle id="타원_12" data-name="타원 12" class="cls-15" cx="1167.83" cy="105.81" r="3.02"/><circle id="타원_13" data-name="타원 13" class="cls-15" cx="1147.27" cy="104.95" r="3.02"/><path id="패스_386" data-name="패스 386" class="cls-14" d="M1165.92,126.52c-4.06,2.79-6.28,0-9-1.44-2.81,1.17-6.61,3.76-8.92,1-3,1.27,4.65,8,7.71,8C1161.75,134.2,1166.31,129.29,1165.92,126.52Z"/></g><circle id="타원_14" data-name="타원 14" class="cls-17" cx="1173.72" cy="115.77" r="5.09"/><circle id="타원_15" data-name="타원 15" class="cls-17" cx="1143.3" cy="114.66" r="5.09"/></g><path id="패스_387" data-name="패스 387" class="cls-14" d="M1161.63,136.88l-.55.39a6.15,6.15,0,0,1-1.44,1l-1,.47a7.91,7.91,0,0,1-1.15.33,4.3,4.3,0,0,1-1.23.22c-.37,0-1,0-1.17.06-.48-.1-1-.2-1.42-.28a3.51,3.51,0,0,1-1.17-.43c-.33-.21-.74-.23-1-.5l-.89-.65a8.51,8.51,0,0,1-1.23-1.17c-.29-.31-.49-.5-.49-.5.06.22.14.43.22.64a4.56,4.56,0,0,0,.84,1.64c.27.29.54.62.85.94a4.1,4.1,0,0,0,1.19.87,4.65,4.65,0,0,0,1.39.65c.47.13.95.23,1.42.36.76,0,1.14-.07,1.72-.11a4,4,0,0,0,1.48-.41,4.43,4.43,0,0,0,1.27-.63c.35-.29.7-.58,1-.82.65-.46.78-1.11,1.06-1.44S1161.63,136.88,1161.63,136.88Z"/><g id="그룹_334" data-name="그룹 334"><path id="패스_388" data-name="패스 388" class="cls-4" d="M1167.87,114.11a7.68,7.68,0,0,1-4.76-1.62c-2.87-2.3-4.23-7.1-3.12-10.92a5.67,5.67,0,0,1,.41-1c1.54-2.85,5.21-3.28,7.27-3.28a15.77,15.77,0,0,1,1.68.1,7.88,7.88,0,0,1,4.84,2,7.49,7.49,0,0,1,1.91,5.75,10.48,10.48,0,0,1-3.35,7.3A7.49,7.49,0,0,1,1167.87,114.11ZM1167.69,99c-1.34,0-4.58.22-5.73,2.36a3.24,3.24,0,0,0-.27.67c-.9,3.08.27,7.23,2.53,9.07a6.21,6.21,0,0,0,7.4-.06,8.76,8.76,0,0,0,2.73-6,5.89,5.89,0,0,0-1.39-4.43,6.32,6.32,0,0,0-3.78-1.46,12.46,12.46,0,0,0-1.5-.11Z"/><path id="패스_389" data-name="패스 389" class="cls-4" d="M1147.35,114.11h0a7.53,7.53,0,0,1-4.88-1.71,10.56,10.56,0,0,1-3.35-7.32,7.49,7.49,0,0,1,1.91-5.75,7.89,7.89,0,0,1,4.82-2,15.77,15.77,0,0,1,1.68-.1c2.06,0,5.73.43,7.27,3.28a5.67,5.67,0,0,1,.41,1c1.11,3.82-.25,8.62-3.12,10.92A7.6,7.6,0,0,1,1147.35,114.11Zm.18-15.08a10.55,10.55,0,0,0-1.49.08,6.64,6.64,0,0,0-3.78,1.46,5.77,5.77,0,0,0-1.41,4.43,8.76,8.76,0,0,0,2.73,6,5.81,5.81,0,0,0,3.75,1.29h0a5.89,5.89,0,0,0,3.68-1.23c2.27-1.83,3.42-6,2.52-9.07a3.52,3.52,0,0,0-.26-.68c-1.16-2.09-4.41-2.34-5.74-2.34Z"/><rect id="사각형_70" data-name="사각형 70" class="cls-4" x="1154.59" y="101.08" width="5.99" height="1.74"/><rect id="사각형_71" data-name="사각형 71" class="cls-4" x="1135.78" y="101.08" width="4.41" height="1.74"/><rect id="사각형_72" data-name="사각형 72" class="cls-4" x="1175.23" y="101.08" width="3.63" height="1.74"/></g><path id="패스_390" data-name="패스 390" class="cls-40" d="M1153.53,112.28c.47-2.26.94-4.51,1.43-6.77.33-1.52,1-3.41,2.59-3.47a2.42,2.42,0,0,1,2.15,1.56,6.79,6.79,0,0,1,.41,2.79c0,2,.06,4,.1,5.93a10.65,10.65,0,0,1-.65,4.78c-.7,1.48-2.32,2.65-3.9,2.26a3.6,3.6,0,0,1-2.46-3A10.42,10.42,0,0,1,1153.53,112.28Z"/></g><path id="패스_391" data-name="패스 391" class="cls-13" d="M1178.27,102.82a14.82,14.82,0,0,0,1.58,7.1,18.5,18.5,0,0,0,4.06-2.58,8.2,8.2,0,0,0,2.57-4,5.33,5.33,0,0,0-.88-4.57,4,4,0,0,0-4.33-1.34,4.24,4.24,0,0,0-2.3,2.24A7.3,7.3,0,0,0,1178.27,102.82Z"/></g><rect class="cls-1" width="1400" height="500"/></g></g></svg>